<svg width="1440" height="645" viewBox="0 0 1440 645" fill="none" xmlns="http://www.w3.org/2000/svg">
<mask id="mask0_233_11915" style="mask-type:alpha" maskUnits="userSpaceOnUse" x="0" y="0" width="1440" height="645">
<rect width="1440" height="645" fill="#D9D9D9"/>
</mask>
<g mask="url(#mask0_233_11915)">
</g>
<g clip-path="url(#clip0_233_11915)">
<path d="M723.79 205.088C721.437 204.975 719.575 204.975 717.222 205.088C683.401 206.821 656.915 234.656 656.915 268.482C656.915 302.309 683.401 330.143 717.222 331.877C717.222 331.877 718.833 332.002 719.776 331.977V253.912C719.5 250.922 718.82 247.945 717.688 245.107C716.115 241.087 713.712 237.332 710.465 234.078C704.917 228.539 697.845 225.436 690.585 224.783C691.252 232.006 694.36 239.077 699.909 244.617C704.803 249.49 710.881 252.48 717.21 253.573V270.794C715.008 264.752 711.485 259.087 706.64 254.251C698.814 246.438 688.849 242.067 678.632 241.137C679.563 251.337 683.942 261.285 691.768 269.085C698.927 276.232 707.899 280.465 717.21 281.847V301.718C714.706 294.27 710.516 287.273 704.577 281.345C695.518 272.313 683.992 267.251 672.165 266.171C673.247 277.966 678.318 289.484 687.364 298.515C695.757 306.893 706.288 311.805 717.21 313.337V327.757C685.666 326.036 661.004 300.035 661.004 268.457C661.004 236.879 685.779 210.778 717.423 209.17C718.745 209.107 719.927 209.095 721.11 209.107C719.474 211.029 718.078 213.177 717.021 215.513C715.473 218.867 714.592 222.585 714.53 226.517C714.429 233.224 716.731 239.417 720.645 244.253C724.696 239.542 727.2 233.425 727.313 226.718C727.401 220.814 725.627 215.3 722.519 210.765C722.129 210.2 721.727 209.66 721.299 209.12C722.041 209.12 722.771 209.145 723.589 209.183C755.233 210.791 780.008 236.842 780.008 268.495C780.008 300.148 755.548 325.86 724.193 327.757V313.375C735.114 311.842 745.646 306.931 754.038 298.553C763.097 289.522 768.155 278.003 769.238 266.209C757.41 267.289 745.872 272.338 736.825 281.382C730.887 287.311 726.697 294.307 724.193 301.756V281.885C733.504 280.503 742.475 276.27 749.634 269.123C757.46 261.31 761.839 251.362 762.77 241.175C752.553 242.105 742.588 246.476 734.762 254.289C729.918 259.125 726.395 264.789 724.193 270.831V253.61C730.534 252.518 736.599 249.528 741.493 244.654C747.03 239.115 750.15 232.056 750.817 224.821C743.57 225.474 736.486 228.577 730.937 234.116C727.728 237.319 725.338 241.05 723.765 245.006C722.607 247.883 721.903 250.897 721.626 253.937V331.99C722.884 331.965 724.054 331.889 724.18 331.864C757.813 329.942 784.097 302.196 784.097 268.495C784.097 234.794 757.611 206.809 723.79 205.088Z" fill="#1D1D1B"/>
<path d="M532.249 399.504C533.206 399.504 533.961 398.738 533.961 397.796C533.961 396.854 533.206 396.088 532.249 396.088H516.459C514.785 396.088 513.426 394.731 513.426 393.06V356.797C513.426 355.868 512.659 355.089 511.715 355.089C510.771 355.089 510.004 355.855 510.004 356.797V399.504H532.237H532.249Z" fill="#1D1D1B"/>
<path d="M491.559 373.554C489.961 374.847 487.897 375.438 485.834 375.438H461.059C458.882 375.438 457.108 373.667 457.108 371.494V362.337C457.108 360.164 458.882 358.393 461.059 358.393H485.783C490.338 358.393 494.402 361.772 494.717 366.306C494.905 369.107 493.761 371.757 491.559 373.541V373.554ZM486.199 354.989H453.711V397.809C453.711 398.738 454.466 399.517 455.422 399.517C456.378 399.517 457.133 398.751 457.133 397.809V378.842H486.211C489.42 378.842 492.427 377.611 494.679 375.35C496.931 373.101 498.177 370.074 498.164 366.896C498.139 360.327 492.792 354.989 486.224 354.989H486.199Z" fill="#1D1D1B"/>
<path d="M657.142 355.102C656.198 355.102 655.431 355.868 655.431 356.81V390.172C655.431 391.566 653.782 392.294 652.751 391.365L612.953 355.454C612.261 354.826 611.179 354.876 610.537 355.579C610.222 355.931 610.071 356.37 610.096 356.81C610.096 356.81 610.096 356.81 610.096 356.823V397.821C610.096 398.763 610.864 399.529 611.808 399.529C612.751 399.529 613.519 398.763 613.519 397.821V364.171C613.519 362.777 615.167 362.048 616.199 362.977L655.607 398.537C655.884 399.115 656.462 399.517 657.142 399.517C658.085 399.517 658.853 398.751 658.853 397.809V356.81C658.853 355.868 658.085 355.102 657.142 355.102Z" fill="#1D1D1B"/>
<path d="M599.679 397.08L574.577 356.144C574.451 355.918 574.275 355.717 574.048 355.567C573.923 355.479 573.772 355.453 573.633 355.403C573.57 355.378 573.52 355.353 573.47 355.34C573.344 355.315 573.231 355.328 573.105 355.34C573.004 355.34 572.903 355.34 572.79 355.34C572.715 355.353 572.639 355.403 572.576 355.428C572.45 355.466 572.325 355.504 572.211 355.579C572.199 355.579 572.186 355.604 572.174 355.617C571.972 355.768 571.809 355.943 571.683 356.144L546.581 397.08C546.078 397.896 546.317 398.989 547.11 399.517C547.399 399.705 547.714 399.793 548.016 399.793C548.582 399.793 549.135 399.504 549.463 398.977L561.315 379.658H584.945L596.797 398.977C597.124 399.504 597.678 399.793 598.244 399.793C598.559 399.793 598.873 399.705 599.15 399.517C599.943 399.002 600.182 397.909 599.679 397.08ZM563.479 376.129L573.13 360.377L582.781 376.129H563.467H563.479Z" fill="#1D1D1B"/>
<path d="M711.963 354.938H670.957C670.014 354.938 669.246 355.705 669.246 356.647C669.246 357.589 670.014 358.355 670.957 358.355H686.61C688.371 358.355 689.793 359.774 689.793 361.533V397.658C689.793 398.6 690.561 399.366 691.504 399.366C692.448 399.366 693.215 398.6 693.215 397.658V361.533C693.215 359.774 694.637 358.355 696.399 358.355H711.988C712.932 358.355 713.699 357.589 713.699 356.647C713.699 355.705 712.932 354.938 711.988 354.938H711.963Z" fill="#1D1D1B"/>
<path d="M434.711 399.504C433.768 399.504 433 398.738 433 397.796V356.797C433 355.855 433.768 355.089 434.711 355.089C435.655 355.089 436.422 355.855 436.422 356.797V397.796C436.422 398.738 435.655 399.504 434.711 399.504Z" fill="#1D1D1B"/>
<path d="M834.389 396.502L809.4 355.968C809.275 355.742 809.098 355.541 808.872 355.403C808.746 355.315 808.595 355.29 808.457 355.24C808.394 355.215 808.343 355.19 808.293 355.177C808.167 355.152 808.054 355.165 807.928 355.177C807.828 355.177 807.727 355.177 807.626 355.177C807.551 355.19 807.488 355.24 807.412 355.265C807.287 355.303 807.161 355.328 807.047 355.403C807.035 355.403 807.022 355.428 807.01 355.441C806.808 355.579 806.645 355.767 806.532 355.968L781.543 396.502C781.04 397.319 781.279 398.399 782.072 398.914C782.348 399.102 782.663 399.19 782.977 399.19C783.544 399.19 784.085 398.901 784.412 398.374L796.214 379.244H819.743L831.545 398.374C831.872 398.901 832.413 399.19 832.98 399.19C833.294 399.19 833.609 399.102 833.886 398.914C834.678 398.399 834.917 397.319 834.414 396.502H834.389ZM798.34 375.752L807.953 360.164L817.566 375.752H798.34Z" fill="#1D1D1B"/>
<path d="M881.22 399.353H853.627C848.72 399.353 844.731 395.372 844.731 390.46C844.731 389.581 845.449 388.865 846.329 388.865C847.21 388.865 847.927 389.581 847.927 390.46C847.927 393.588 850.482 396.15 853.615 396.15H881.208C884.492 396.15 887.172 393.488 887.172 390.197V385.009C887.172 381.731 884.504 379.055 881.208 379.055H858.748C852.91 379.055 848.166 374.32 848.166 368.492V364.799C848.166 359.347 852.608 354.913 858.069 354.913H881.535C886.102 354.913 889.827 358.631 889.827 363.191C889.827 364.07 889.109 364.786 888.229 364.786C887.348 364.786 886.631 364.07 886.631 363.191C886.631 360.39 884.353 358.116 881.547 358.116H858.081C854.395 358.116 851.387 361.118 851.387 364.799V368.492C851.387 372.549 854.697 375.852 858.761 375.852H881.22C886.278 375.852 890.393 379.96 890.393 385.009V390.197C890.393 395.246 886.278 399.353 881.22 399.353Z" fill="#1D1D1B"/>
<path d="M944.698 397.67C944.698 398.6 943.968 399.341 943.025 399.341H900.471L900.434 355.001H943.012C943.943 355.001 944.686 355.767 944.686 356.672C944.686 357.576 943.956 358.342 943.012 358.342H905.781C904.661 358.342 903.768 359.247 903.768 360.352V373.516C903.768 374.433 904.51 375.174 905.429 375.174H935.777C936.708 375.174 937.451 375.902 937.451 376.844C937.451 377.787 936.721 378.515 935.777 378.515H905.429C904.51 378.515 903.768 379.256 903.768 380.173V394.003C903.768 395.12 904.674 396.012 905.781 396.012H943.012C943.943 396.012 944.686 396.778 944.686 397.683L944.698 397.67Z" fill="#1D1D1B"/>
<path d="M985.918 395.912H960.287C959.067 395.912 958.073 394.92 958.073 393.701V360.679C958.073 359.448 959.067 358.456 960.3 358.456H985.251C989.868 358.456 994.461 359.862 997.971 362.839C1002.31 366.52 1004.75 371.745 1004.68 377.347C1004.61 387.572 996.197 395.912 985.918 395.912ZM985.918 399.215C998.022 399.215 1007.9 389.418 1008 377.372C1008.08 370.765 1005.22 364.56 1000.07 360.239C995.92 356.76 990.51 355.127 985.087 355.127H954.801C954.764 362.839 954.764 391.428 954.764 399.203H985.918V399.215Z" fill="#1D1D1B"/>
<path d="M767.728 379.093C766.444 377.799 764.897 376.882 763.223 376.304C763.638 375.978 764.066 375.676 764.456 375.287C766.696 373.051 767.941 370.037 767.916 366.871C767.891 360.34 762.569 355.026 756.026 355.026H726.948V399.353H759.297C765.84 399.353 771.163 394.04 771.188 387.509C771.213 384.343 769.967 381.329 767.728 379.093ZM734.271 358.43H755.611C760.14 358.43 764.192 361.797 764.507 366.306C764.695 369.094 763.55 371.732 761.361 373.516C759.776 374.81 757.712 375.387 755.661 375.387H734.271C732.132 375.387 730.408 373.692 730.345 371.569V362.236C730.408 360.126 732.132 358.418 734.271 358.418V358.43ZM758.882 395.949H734.259C732.12 395.949 730.396 394.254 730.333 392.131V382.798C730.396 380.688 732.12 378.98 734.259 378.98H758.933C760.983 378.98 763.047 379.558 764.632 380.851C766.822 382.635 767.967 385.273 767.778 388.061C767.463 392.571 763.424 395.937 758.882 395.937V395.949Z" fill="#1D1D1B"/>
<path d="M549.374 439.874V422.289H555.967C557.464 422.289 558.748 422.528 559.817 423.005C560.887 423.483 561.717 424.173 562.296 425.065C562.875 425.957 563.164 427.05 563.164 428.318C563.164 429.587 562.875 430.63 562.296 431.521C561.717 432.413 560.887 433.104 559.817 433.594C558.748 434.084 557.464 434.323 555.967 434.323H550.406L551.236 433.443V439.874H549.374ZM551.236 433.594L550.406 432.69H555.917C557.678 432.69 559.012 432.313 559.931 431.547C560.849 430.78 561.302 429.713 561.302 428.318C561.302 426.924 560.849 425.819 559.931 425.053C559.012 424.286 557.678 423.897 555.917 423.897H550.406L551.236 423.018V433.594Z" fill="black"/>
<path d="M572.098 439.874V421.234H573.884V439.874H572.098Z" fill="black"/>
<path d="M587.625 440C586.631 440 585.775 439.837 585.045 439.51C584.315 439.184 583.762 438.731 583.372 438.154C582.982 437.576 582.793 436.91 582.793 436.157C582.793 435.466 582.957 434.85 583.284 434.285C583.611 433.72 584.152 433.268 584.894 432.928C585.637 432.589 586.643 432.413 587.901 432.413H592.456V433.745H587.952C586.681 433.745 585.788 433.971 585.297 434.423C584.806 434.875 584.554 435.441 584.554 436.106C584.554 436.86 584.844 437.463 585.435 437.915C586.027 438.367 586.844 438.593 587.901 438.593C588.958 438.593 589.776 438.367 590.506 437.902C591.236 437.438 591.764 436.772 592.104 435.905L592.507 437.136C592.167 438.003 591.588 438.706 590.758 439.221C589.927 439.736 588.883 440 587.625 440ZM592.179 439.875V436.96L592.104 436.483V431.61C592.104 430.492 591.789 429.625 591.16 429.022C590.531 428.419 589.6 428.118 588.354 428.118C587.499 428.118 586.681 428.256 585.913 428.545C585.146 428.834 584.492 429.21 583.951 429.675L583.145 428.344C583.812 427.778 584.617 427.339 585.561 427.025C586.505 426.711 587.486 426.56 588.531 426.56C590.242 426.56 591.563 426.987 592.494 427.829C593.425 428.67 593.891 429.964 593.891 431.685V439.875H592.179Z" fill="black"/>
<path d="M610.524 426.56C611.594 426.56 612.538 426.761 613.355 427.176C614.173 427.59 614.802 428.206 615.268 429.047C615.733 429.889 615.96 430.944 615.96 432.212V439.875H614.173V432.388C614.173 430.994 613.821 429.951 613.129 429.236C612.437 428.52 611.456 428.168 610.197 428.168C609.254 428.168 608.436 428.356 607.744 428.733C607.052 429.11 606.511 429.65 606.133 430.366C605.756 431.082 605.567 431.936 605.567 432.941V439.875H603.78V426.686H605.491V430.303L605.215 429.625C605.63 428.67 606.309 427.917 607.228 427.377C608.146 426.836 609.254 426.56 610.524 426.56Z" fill="black"/>
<path d="M623.761 428.168V426.686H631.939V428.168H623.761ZM630.002 440C628.756 440 627.8 439.661 627.133 438.995C626.466 438.329 626.126 437.375 626.126 436.156V423.771H627.913V436.056C627.913 436.822 628.114 437.425 628.504 437.84C628.894 438.254 629.461 438.468 630.203 438.468C630.996 438.468 631.65 438.242 632.166 437.789L632.795 439.071C632.443 439.385 632.015 439.623 631.524 439.774C631.033 439.925 630.517 440 630.002 440Z" fill="black"/>
<path d="M646.081 440C644.773 440 643.603 439.711 642.571 439.133C641.539 438.556 640.734 437.764 640.142 436.747C639.551 435.729 639.262 434.574 639.262 433.268C639.262 431.961 639.551 430.78 640.142 429.776C640.734 428.771 641.539 427.979 642.571 427.414C643.603 426.849 644.773 426.56 646.081 426.56C647.201 426.56 648.22 426.774 649.126 427.213C650.032 427.653 650.749 428.306 651.265 429.173L649.932 430.077C649.479 429.411 648.912 428.909 648.246 428.595C647.579 428.281 646.849 428.118 646.056 428.118C645.113 428.118 644.269 428.331 643.515 428.758C642.76 429.185 642.168 429.788 641.728 430.554C641.287 431.321 641.074 432.225 641.074 433.268C641.074 434.31 641.287 435.214 641.728 435.981C642.168 436.747 642.76 437.35 643.515 437.777C644.269 438.204 645.113 438.417 646.056 438.417C646.849 438.417 647.579 438.254 648.246 437.94C648.912 437.626 649.479 437.136 649.932 436.483L651.265 437.387C650.749 438.242 650.032 438.895 649.126 439.334C648.22 439.774 647.201 440 646.081 440Z" fill="black"/>
<path d="M659.797 439.875V426.686H661.508V430.278L661.332 429.65C661.697 428.645 662.326 427.879 663.194 427.351C664.062 426.824 665.144 426.56 666.44 426.56V428.293C666.377 428.293 666.302 428.293 666.239 428.281C666.176 428.281 666.101 428.281 666.038 428.281C664.641 428.281 663.559 428.708 662.766 429.55C661.974 430.391 661.584 431.597 661.584 433.154V439.887H659.797V439.875Z" fill="black"/>
<path d="M677.462 440C676.468 440 675.613 439.837 674.883 439.51C674.153 439.184 673.6 438.731 673.21 438.154C672.82 437.576 672.631 436.91 672.631 436.157C672.631 435.466 672.794 434.85 673.122 434.285C673.449 433.72 673.99 433.268 674.732 432.928C675.474 432.589 676.481 432.413 677.739 432.413H682.294V433.745H677.79C676.519 433.745 675.625 433.971 675.135 434.423C674.644 434.875 674.392 435.441 674.392 436.106C674.392 436.86 674.682 437.463 675.273 437.915C675.865 438.367 676.682 438.593 677.739 438.593C678.796 438.593 679.614 438.367 680.344 437.902C681.074 437.438 681.602 436.772 681.942 435.905L682.344 437.136C682.005 438.003 681.426 438.706 680.595 439.221C679.765 439.736 678.721 440 677.462 440ZM682.017 439.875V436.96L681.942 436.483V431.61C681.942 430.492 681.627 429.625 680.998 429.022C680.369 428.419 679.438 428.118 678.192 428.118C677.337 428.118 676.519 428.256 675.751 428.545C674.984 428.834 674.329 429.21 673.788 429.675L672.983 428.344C673.65 427.778 674.455 427.339 675.399 427.025C676.343 426.711 677.324 426.56 678.368 426.56C680.08 426.56 681.401 426.987 682.332 427.829C683.263 428.67 683.728 429.964 683.728 431.685V439.875H682.017Z" fill="black"/>
<path d="M691.555 428.168V426.686H699.733V428.168H691.555ZM693.92 439.874V425.028C693.92 423.859 694.26 422.905 694.952 422.189C695.644 421.473 696.625 421.109 697.921 421.109C698.425 421.109 698.915 421.171 699.381 421.31C699.846 421.448 700.249 421.649 700.564 421.938L699.96 423.269C699.708 423.056 699.419 422.892 699.079 422.779C698.739 422.666 698.387 422.616 697.997 422.616C697.242 422.616 696.663 422.829 696.26 423.244C695.858 423.658 695.657 424.287 695.657 425.103V427.113L695.707 427.942V439.874H693.92Z" fill="black"/>
<path d="M705.118 428.168V426.686H713.297V428.168H705.118ZM711.359 440C710.113 440 709.157 439.661 708.49 438.995C707.823 438.329 707.484 437.375 707.484 436.156V423.771H709.27V436.056C709.27 436.822 709.472 437.425 709.862 437.84C710.252 438.254 710.818 438.468 711.56 438.468C712.353 438.468 713.007 438.242 713.523 437.789L714.152 439.071C713.8 439.385 713.372 439.623 712.881 439.774C712.391 439.925 711.875 440 711.359 440Z" fill="black"/>
<path d="M727.565 440C726.193 440 724.985 439.711 723.941 439.133C722.897 438.556 722.091 437.764 721.5 436.747C720.909 435.729 720.619 434.574 720.619 433.268C720.619 431.961 720.896 430.806 721.462 429.801C722.028 428.796 722.796 428.005 723.777 427.427C724.759 426.849 725.866 426.56 727.086 426.56C728.307 426.56 729.427 426.836 730.396 427.402C731.364 427.967 732.119 428.746 732.673 429.763C733.227 430.78 733.503 431.949 733.503 433.268C733.503 433.355 733.503 433.443 733.503 433.531C733.503 433.619 733.491 433.72 733.491 433.82H721.991V432.489H732.535L731.83 433.016C731.83 432.062 731.629 431.208 731.213 430.466C730.798 429.725 730.245 429.135 729.54 428.721C728.835 428.306 728.018 428.092 727.099 428.092C726.181 428.092 725.375 428.306 724.658 428.721C723.941 429.135 723.375 429.725 722.972 430.479C722.569 431.233 722.368 432.099 722.368 433.067V433.343C722.368 434.348 722.595 435.227 723.035 435.993C723.475 436.759 724.104 437.35 724.897 437.777C725.69 438.204 726.608 438.417 727.628 438.417C728.433 438.417 729.188 438.279 729.88 437.99C730.572 437.701 731.176 437.274 731.679 436.684L732.686 437.84C732.094 438.543 731.364 439.083 730.484 439.447C729.603 439.812 728.634 440 727.577 440H727.565Z" fill="black"/>
<path d="M747.433 440C746.175 440 745.042 439.711 744.048 439.146C743.054 438.581 742.262 437.789 741.695 436.772C741.129 435.754 740.84 434.586 740.84 433.267C740.84 431.948 741.129 430.755 741.695 429.75C742.262 428.745 743.054 427.967 744.048 427.401C745.042 426.836 746.175 426.56 747.433 426.56C748.591 426.56 749.622 426.824 750.541 427.339C751.459 427.854 752.189 428.62 752.73 429.612C753.271 430.605 753.548 431.823 753.548 433.267C753.548 434.712 753.284 435.905 752.743 436.91C752.202 437.915 751.484 438.681 750.566 439.209C749.647 439.736 748.603 440 747.433 440ZM747.559 438.417C748.502 438.417 749.345 438.204 750.088 437.777C750.83 437.35 751.422 436.747 751.849 435.968C752.277 435.189 752.491 434.285 752.491 433.267C752.491 432.25 752.277 431.32 751.849 430.554C751.422 429.788 750.83 429.185 750.088 428.758C749.345 428.331 748.502 428.117 747.559 428.117C746.615 428.117 745.81 428.331 745.068 428.758C744.325 429.185 743.746 429.788 743.306 430.554C742.866 431.32 742.652 432.225 742.652 433.267C742.652 434.31 742.866 435.189 743.306 435.968C743.746 436.747 744.325 437.35 745.068 437.777C745.81 438.204 746.64 438.417 747.559 438.417ZM752.541 439.874V435.905L752.718 433.242L752.466 430.579V421.234H754.253V439.874H752.541Z" fill="black"/>
<path d="M773.83 428.168V426.686H782.009V428.168H773.83ZM776.208 439.874V425.028C776.208 423.859 776.548 422.905 777.24 422.189C777.932 421.473 778.913 421.109 780.209 421.109C780.713 421.109 781.203 421.171 781.669 421.31C782.134 421.448 782.537 421.649 782.852 421.938L782.248 423.269C781.996 423.056 781.707 422.892 781.367 422.779C781.027 422.666 780.675 422.616 780.285 422.616C779.53 422.616 778.951 422.829 778.548 423.244C778.146 423.658 777.944 424.287 777.944 425.103V427.113L777.995 427.942V439.874H776.208Z" fill="black"/>
<path d="M794.616 440C793.32 440 792.175 439.711 791.169 439.133C790.162 438.556 789.37 437.752 788.778 436.734C788.187 435.717 787.897 434.561 787.897 433.268C787.897 431.974 788.187 430.78 788.778 429.776C789.37 428.771 790.162 427.979 791.169 427.414C792.175 426.849 793.32 426.56 794.616 426.56C795.912 426.56 797.083 426.849 798.102 427.427C799.121 428.005 799.914 428.796 800.492 429.788C801.071 430.78 801.361 431.949 801.361 433.268C801.361 434.586 801.071 435.729 800.492 436.747C799.914 437.764 799.108 438.556 798.089 439.133C797.07 439.711 795.912 440 794.616 440ZM794.616 438.417C795.573 438.417 796.416 438.204 797.158 437.777C797.9 437.35 798.479 436.747 798.907 435.968C799.335 435.189 799.549 434.285 799.549 433.268C799.549 432.25 799.335 431.321 798.907 430.554C798.479 429.788 797.9 429.185 797.158 428.758C796.416 428.331 795.585 428.118 794.642 428.118C793.698 428.118 792.868 428.331 792.125 428.758C791.383 429.185 790.804 429.788 790.364 430.554C789.923 431.321 789.709 432.225 789.709 433.268C789.709 434.31 789.923 435.189 790.364 435.968C790.804 436.747 791.383 437.35 792.113 437.777C792.842 438.204 793.673 438.417 794.616 438.417Z" fill="black"/>
<path d="M810.042 439.875V426.686H811.753V430.278L811.577 429.65C811.942 428.645 812.571 427.879 813.439 427.351C814.307 426.824 815.389 426.56 816.685 426.56V428.293C816.623 428.293 816.547 428.293 816.484 428.281C816.421 428.281 816.346 428.281 816.283 428.281C814.886 428.281 813.804 428.708 813.011 429.55C812.219 430.391 811.829 431.597 811.829 433.154V439.887H810.042V439.875Z" fill="black"/>
<path d="M837.17 439.874V422.289H839.032V438.267H848.897V439.874H837.17Z" fill="black"/>
<path d="M857.553 423.771C857.188 423.771 856.873 423.646 856.622 423.395C856.37 423.143 856.244 422.842 856.244 422.49C856.244 422.139 856.37 421.837 856.622 421.598C856.873 421.36 857.188 421.234 857.553 421.234C857.918 421.234 858.232 421.347 858.484 421.586C858.735 421.824 858.861 422.113 858.861 422.465C858.861 422.829 858.735 423.143 858.496 423.395C858.257 423.646 857.943 423.771 857.553 423.771ZM856.647 439.874V426.686H858.433V439.874H856.647Z" fill="black"/>
<path d="M866.386 428.168V426.686H874.564V428.168H866.386ZM868.751 439.874V425.028C868.751 423.859 869.091 422.905 869.783 422.189C870.475 421.473 871.456 421.109 872.752 421.109C873.256 421.109 873.746 421.171 874.212 421.31C874.678 421.448 875.08 421.649 875.395 421.938L874.791 423.269C874.539 423.056 874.25 422.892 873.91 422.779C873.57 422.666 873.218 422.616 872.828 422.616C872.073 422.616 871.494 422.829 871.092 423.244C870.689 423.658 870.488 424.287 870.488 425.103V427.113L870.538 427.942V439.874H868.751Z" fill="black"/>
<path d="M887.399 440C886.027 440 884.819 439.711 883.775 439.133C882.731 438.556 881.925 437.764 881.334 436.747C880.743 435.729 880.453 434.574 880.453 433.268C880.453 431.961 880.73 430.806 881.296 429.801C881.862 428.796 882.63 428.005 883.611 427.427C884.593 426.849 885.7 426.56 886.92 426.56C888.141 426.56 889.261 426.836 890.23 427.402C891.198 427.967 891.953 428.746 892.507 429.763C893.061 430.78 893.337 431.949 893.337 433.268C893.337 433.355 893.337 433.443 893.337 433.531C893.337 433.619 893.325 433.72 893.325 433.82H881.825V432.489H892.369L891.664 433.016C891.664 432.062 891.463 431.208 891.047 430.466C890.632 429.725 890.079 429.135 889.374 428.721C888.669 428.306 887.852 428.092 886.933 428.092C886.015 428.092 885.209 428.306 884.492 428.721C883.775 429.135 883.209 429.725 882.806 430.479C882.403 431.233 882.202 432.099 882.202 433.067V433.343C882.202 434.348 882.429 435.227 882.869 435.993C883.309 436.759 883.938 437.35 884.731 437.777C885.524 438.204 886.442 438.417 887.461 438.417C888.267 438.417 889.022 438.279 889.714 437.99C890.406 437.701 891.01 437.274 891.513 436.684L892.52 437.84C891.928 438.543 891.198 439.083 890.318 439.447C889.437 439.812 888.468 440 887.411 440H887.399Z" fill="black"/>
</g>
<defs>
<clipPath id="clip0_233_11915">
<rect width="575" height="235" fill="white" transform="translate(433 205)"/>
</clipPath>
</defs>
</svg>
