<svg width="575" height="126" viewBox="0 0 575 126" fill="none" xmlns="http://www.w3.org/2000/svg">
<path d="M65.9381 0.0867303C63.6138 -0.0289101 61.7751 -0.0289101 59.4623 0.0867303C26.1116 1.79821 0 29.2859 0 62.6944C0 96.1029 26.1 123.579 59.4391 125.291C59.4391 125.291 61.0234 125.406 61.9601 125.395V48.3088C61.6826 45.3484 61.0118 42.4111 59.9017 39.6242C58.3521 35.6577 55.9815 31.9456 52.7898 28.7308C47.32 23.2611 40.3469 20.2082 33.2003 19.5606C33.8595 26.6956 36.924 33.6687 42.3822 39.1385C47.2044 43.9491 53.1946 46.8979 59.4391 47.985V64.9841C57.2651 59.0286 53.7959 53.4316 49.0199 48.6557C41.3067 40.9425 31.4889 36.6291 21.405 35.7155C22.3302 45.7878 26.6435 55.6057 34.3567 63.3189C41.4224 70.3845 50.2573 74.5591 59.4391 75.9237V95.5478C56.9644 88.1931 52.8361 81.2778 46.9847 75.4264C38.0572 66.499 26.6898 61.5149 15.0332 60.451C16.0971 72.1075 21.0928 83.4634 30.0202 92.3909C38.2885 100.659 48.673 105.516 59.4391 107.031V121.266C28.355 119.566 4.03585 93.8942 4.03585 62.7175C4.03585 31.5409 28.4591 5.70685 59.6589 4.12258C60.9656 4.05319 62.122 4.04163 63.29 4.05319C61.671 5.9497 60.2949 8.07748 59.2657 10.3787C57.7508 13.686 56.8719 17.3634 56.8025 21.2374C56.6985 27.8635 58.9766 33.9694 62.8274 38.7453C66.8286 34.0966 69.2917 28.0486 69.3958 21.4339C69.4883 15.5941 67.7306 10.159 64.6777 5.67216C64.296 5.11709 63.8913 4.57358 63.475 4.04163C64.2035 4.04163 64.9321 4.06476 65.73 4.09945C96.9182 5.68372 121.341 31.4137 121.341 62.6597C121.341 93.9058 97.2304 119.312 66.3197 121.185V106.985C77.0859 105.47 87.4588 100.613 95.7386 92.3446C104.666 83.4172 109.662 72.0497 110.726 60.4047C99.0691 61.4686 87.7016 66.4643 78.7742 75.3802C72.9228 81.2316 68.7944 88.1469 66.3197 95.5016V75.8774C75.5016 74.5129 84.3365 70.3382 91.4021 63.2726C99.1153 55.5594 103.429 45.7415 104.354 35.6693C94.2816 36.5828 84.4521 40.8962 76.7389 48.6094C71.963 53.3854 68.4938 58.9824 66.3197 64.9378V47.9387C72.5643 46.8633 78.5545 43.9144 83.3767 39.0922C88.8349 33.6224 91.911 26.6493 92.5585 19.5143C85.412 20.1619 78.4389 23.2148 72.9691 28.6846C69.8121 31.8531 67.453 35.5305 65.9034 39.4391C64.7586 42.2723 64.0648 45.2559 63.7988 48.2625V125.337C65.0361 125.302 66.1925 125.233 66.3197 125.221C99.4623 123.325 125.377 95.9295 125.377 62.6482C125.377 29.3669 99.2772 1.79821 65.9381 0.0867303Z" fill="#1D1D1B"/>
<path d="M228.645 63.9781C229.339 63.9781 229.882 63.4115 229.882 62.7407C229.882 62.07 229.339 61.5034 228.645 61.5034H217.15C215.936 61.5034 214.941 60.5204 214.941 59.2947V32.8477C214.941 32.1654 214.375 31.6104 213.704 31.6104C213.033 31.6104 212.467 32.177 212.467 32.8477V63.9897H228.645V63.9781Z" fill="#1D1D1B"/>
<path d="M199.017 45.0477C197.849 45.9959 196.346 46.4238 194.854 46.4238H176.814C175.23 46.4238 173.935 45.1402 173.935 43.5444V36.8719C173.935 35.2876 175.218 33.9925 176.814 33.9925H194.819C198.138 33.9925 201.087 36.4556 201.318 39.7629C201.457 41.8098 200.624 43.7409 199.017 45.0477ZM195.12 31.5062H171.46V62.7291C171.46 63.4114 172.003 63.9664 172.697 63.9664C173.391 63.9664 173.935 63.3998 173.935 62.7291V48.8985H195.108C197.444 48.8985 199.63 48.0081 201.272 46.3429C202.914 44.7008 203.828 42.5036 203.805 40.1792C203.793 35.3917 199.896 31.4946 195.108 31.4946L195.12 31.5062Z" fill="#1D1D1B"/>
<path d="M319.572 31.5868C318.89 31.5868 318.335 32.1419 318.335 32.8241V57.1549C318.335 58.1725 317.132 58.7044 316.38 58.0222L287.412 31.8296C286.904 31.3671 286.117 31.4133 285.655 31.9221C285.423 32.1766 285.319 32.5003 285.331 32.8241C285.331 32.8241 285.331 32.8241 285.331 32.8357V62.7403C285.331 63.4226 285.886 63.9776 286.568 63.9776C287.251 63.9776 287.806 63.4226 287.806 62.7403V38.2014C287.806 37.1838 289.008 36.6518 289.76 37.3341L318.45 63.2722C318.647 63.6885 319.075 63.9892 319.572 63.9892C320.254 63.9892 320.809 63.4341 320.809 62.7519V32.8473C320.809 32.165 320.254 31.6099 319.572 31.6099V31.5868Z" fill="#1D1D1B"/>
<path d="M277.733 62.2087L259.462 32.3619C259.37 32.2 259.242 32.0497 259.08 31.9456C258.988 31.8878 258.884 31.8647 258.78 31.83C258.734 31.8184 258.699 31.7953 258.653 31.7837C258.56 31.7606 258.479 31.7837 258.387 31.7837C258.306 31.7837 258.236 31.7837 258.167 31.7837C258.109 31.7953 258.063 31.83 258.005 31.8415C257.913 31.8762 257.82 31.8878 257.739 31.9456C257.727 31.9456 257.716 31.9687 257.704 31.9803C257.554 32.0844 257.438 32.2232 257.346 32.3735L239.075 62.2203C238.705 62.8216 238.878 63.6195 239.456 63.9896C239.664 64.1283 239.896 64.1861 240.115 64.1861C240.532 64.1861 240.925 63.978 241.168 63.5848L249.795 49.4883H267.002L275.629 63.5848C275.86 63.9664 276.265 64.1861 276.681 64.1861C276.912 64.1861 277.144 64.1168 277.34 63.9896C277.918 63.6079 278.092 62.8216 277.722 62.2203L277.733 62.2087ZM251.379 46.921L258.41 35.438L265.441 46.921H251.379Z" fill="#1D1D1B"/>
<path d="M359.48 31.4712H329.622C328.94 31.4712 328.385 32.0263 328.385 32.7085C328.385 33.3908 328.94 33.9459 329.622 33.9459H341.013C342.296 33.9459 343.326 34.9867 343.326 36.2587V62.6016C343.326 63.2839 343.881 63.8389 344.563 63.8389C345.245 63.8389 345.8 63.2839 345.8 62.6016V36.2587C345.8 34.9751 346.841 33.9459 348.113 33.9459H359.457C360.14 33.9459 360.695 33.3908 360.695 32.7085C360.695 32.0263 360.14 31.4712 359.457 31.4712H359.48Z" fill="#1D1D1B"/>
<path d="M157.63 63.9774C156.948 63.9774 156.393 63.4224 156.393 62.7401V32.8355C156.393 32.1532 156.948 31.5981 157.63 31.5981C158.312 31.5981 158.867 32.1532 158.867 32.8355V62.7401C158.867 63.4224 158.312 63.9774 157.63 63.9774Z" fill="#1D1D1B"/>
<path d="M448.604 61.7809L430.414 32.2232C430.321 32.0614 430.194 31.911 430.032 31.8069C429.939 31.7491 429.835 31.726 429.731 31.6913C429.685 31.6797 429.65 31.6566 429.604 31.645C429.512 31.6219 429.431 31.645 429.338 31.645C429.257 31.645 429.188 31.645 429.118 31.645C429.061 31.6566 429.014 31.6913 428.956 31.7029C428.864 31.7376 428.771 31.7491 428.69 31.8069C428.679 31.8069 428.667 31.8301 428.656 31.8416C428.505 31.9457 428.39 32.0729 428.309 32.2232L410.119 61.7809C409.749 62.3707 409.922 63.157 410.5 63.5387C410.708 63.6774 410.94 63.7352 411.159 63.7352C411.564 63.7352 411.969 63.5271 412.2 63.1455L420.792 49.1877H437.919L446.511 63.1455C446.742 63.5271 447.147 63.7352 447.551 63.7352C447.783 63.7352 448.002 63.6659 448.211 63.5387C448.789 63.157 448.962 62.3822 448.592 61.7809H448.604ZM422.365 46.6436L429.361 35.2762L436.357 46.6436H422.365Z" fill="#1D1D1B"/>
<path d="M482.695 63.8621H462.609C459.035 63.8621 456.133 60.9595 456.133 57.3746C456.133 56.727 456.653 56.2067 457.301 56.2067C457.948 56.2067 458.469 56.727 458.469 57.3746C458.469 59.6643 460.331 61.5261 462.609 61.5261H482.695C485.089 61.5261 487.032 59.5834 487.032 57.1896V53.4082C487.032 51.0144 485.089 49.0717 482.695 49.0717H466.344C462.1 49.0717 458.642 45.614 458.642 41.37V38.6756C458.642 34.6976 461.88 31.4712 465.847 31.4712H482.927C486.257 31.4712 488.963 34.1772 488.963 37.5076C488.963 38.1552 488.443 38.6756 487.795 38.6756C487.148 38.6756 486.627 38.1552 486.627 37.5076C486.627 35.4723 484.962 33.8071 482.927 33.8071H465.847C463.164 33.8071 460.978 35.9927 460.978 38.6756V41.37C460.978 44.3304 463.383 46.7357 466.344 46.7357H482.695C486.373 46.7357 489.368 49.7308 489.368 53.4082V57.1896C489.368 60.867 486.373 63.8621 482.695 63.8621Z" fill="#1D1D1B"/>
<path d="M528.917 62.6359C528.917 63.3182 528.385 63.8501 527.702 63.8501H496.722L496.699 31.5171H527.702C528.385 31.5171 528.917 32.0722 528.917 32.7313C528.917 33.3905 528.385 33.9455 527.702 33.9455H500.596C499.787 33.9455 499.128 34.6047 499.128 35.4142V45.0123C499.128 45.683 499.671 46.2265 500.342 46.2265H522.429C523.111 46.2265 523.643 46.7585 523.643 47.4408C523.643 48.123 523.111 48.655 522.429 48.655H500.342C499.671 48.655 499.128 49.1985 499.128 49.8692V59.9531C499.128 60.7625 499.787 61.4217 500.596 61.4217H527.702C528.385 61.4217 528.917 61.9768 528.917 62.6359Z" fill="#1D1D1B"/>
<path d="M558.924 61.3522H540.26C539.369 61.3522 538.652 60.6353 538.652 59.7448V35.6569C538.652 34.7665 539.381 34.038 540.271 34.038H558.438C561.792 34.038 565.146 35.0672 567.701 37.2412C570.87 39.9241 572.639 43.7402 572.581 47.8223C572.535 55.2811 566.406 61.3638 558.924 61.3638V61.3522ZM558.924 63.7576C567.736 63.7576 574.929 56.611 574.998 47.8339C575.056 43.0117 572.974 38.4901 569.228 35.3447C566.209 32.8006 562.266 31.6211 558.311 31.6211H536.27C536.247 37.2412 536.247 58.0912 536.247 63.7691H558.936L558.924 63.7576Z" fill="#1D1D1B"/>
<path d="M400.07 49.083C399.134 48.1348 398.012 47.4756 396.786 47.0477C397.087 46.8165 397.399 46.5852 397.677 46.3076C399.307 44.6771 400.221 42.48 400.198 40.1671C400.186 35.4028 396.301 31.5288 391.536 31.5288H370.374V63.8619H393.93C398.694 63.8619 402.568 59.9879 402.591 55.2235C402.603 52.9107 401.701 50.7251 400.07 49.083ZM375.717 34.0151H391.259C394.554 34.0151 397.503 36.4667 397.735 39.7624C397.873 41.7977 397.041 43.7173 395.445 45.024C394.288 45.9723 392.785 46.3886 391.293 46.3886H375.717C374.167 46.3886 372.907 45.1512 372.86 43.6017V36.802C372.907 35.264 374.155 34.0151 375.717 34.0151ZM393.641 61.3872H375.717C374.167 61.3872 372.907 60.1498 372.86 58.6002V51.8006C372.907 50.2626 374.155 49.0136 375.717 49.0136H393.676C395.167 49.0136 396.671 49.4415 397.827 50.3782C399.423 51.6734 400.255 53.6046 400.117 55.6398C399.885 58.9356 396.948 61.3872 393.641 61.3872Z" fill="#1D1D1B"/>
<path d="M156.299 93.4082V80.5952H161.098C162.185 80.5952 163.122 80.7687 163.896 81.1156C164.683 81.4625 165.284 81.9598 165.7 82.6189C166.117 83.2665 166.336 84.0644 166.336 84.9895C166.336 85.9147 166.128 86.6663 165.7 87.3255C165.273 87.9846 164.683 88.4819 163.896 88.8404C163.11 89.1989 162.185 89.3723 161.098 89.3723H157.05L157.652 88.7363V93.4197H156.299V93.4082ZM157.652 88.8288L157.05 88.1697H161.063C162.347 88.1697 163.318 87.8921 163.989 87.337C164.648 86.782 164.983 85.9956 164.983 84.9895C164.983 83.9835 164.648 83.174 163.989 82.6074C163.318 82.0407 162.347 81.7632 161.063 81.7632H157.05L157.652 81.1272V88.8404V88.8288Z" fill="black"/>
<path d="M181.256 93.4081V79.8203H182.551V93.4081H181.256Z" fill="black"/>
<path d="M200.972 93.5003C200.255 93.5003 199.63 93.3847 199.098 93.1418C198.566 92.899 198.162 92.5752 197.884 92.1589C197.607 91.7426 197.468 91.2569 197.468 90.7018C197.468 90.2046 197.583 89.742 197.826 89.3373C198.069 88.9325 198.451 88.5972 198.994 88.3543C199.538 88.0999 200.266 87.9843 201.18 87.9843H204.499V88.9556H201.226C200.301 88.9556 199.653 89.1175 199.295 89.4529C198.936 89.7883 198.751 90.193 198.751 90.6787C198.751 91.2222 198.96 91.6616 199.387 91.997C199.815 92.3208 200.417 92.4942 201.18 92.4942C201.943 92.4942 202.544 92.3208 203.076 91.9854C203.608 91.6501 203.99 91.1644 204.244 90.5283L204.533 91.4303C204.291 92.0664 203.863 92.5752 203.261 92.9452C202.66 93.3268 201.897 93.5119 200.983 93.5119L200.972 93.5003ZM204.291 93.4078V91.28L204.233 90.9331V87.3829C204.233 86.5619 204.001 85.9374 203.55 85.498C203.088 85.0586 202.417 84.8388 201.515 84.8388C200.891 84.8388 200.301 84.9429 199.734 85.1511C199.168 85.3592 198.694 85.6368 198.312 85.9721L197.722 85.0007C198.208 84.5844 198.798 84.2606 199.48 84.0409C200.162 83.8096 200.879 83.7056 201.642 83.7056C202.891 83.7056 203.851 84.0178 204.522 84.6307C205.193 85.2436 205.539 86.1803 205.539 87.4408V93.4078H204.291Z" fill="black"/>
<path d="M226.055 83.7056C226.841 83.7056 227.523 83.8559 228.113 84.1566C228.703 84.4572 229.165 84.9082 229.501 85.5211C229.836 86.134 230.01 86.8972 230.01 87.8224V93.4078H228.714V87.9496C228.714 86.9319 228.46 86.1687 227.951 85.6483C227.442 85.1279 226.737 84.8735 225.823 84.8735C225.141 84.8735 224.54 85.0123 224.043 85.2898C223.545 85.5674 223.141 85.9606 222.875 86.4809C222.597 87.0013 222.458 87.6258 222.458 88.3543V93.4078H221.163V83.7981H222.412V86.4347L222.215 85.9374C222.516 85.2436 223.013 84.7001 223.684 84.2953C224.355 83.9022 225.153 83.7056 226.078 83.7056H226.055Z" fill="black"/>
<path d="M244.104 84.8741V83.7987H250.06V84.8741H244.104ZM248.649 93.5009C247.747 93.5009 247.053 93.2581 246.568 92.7724C246.082 92.2867 245.839 91.5928 245.839 90.7024V81.6709H247.134V90.6215C247.134 91.1881 247.273 91.616 247.562 91.9166C247.851 92.2173 248.256 92.3792 248.799 92.3792C249.378 92.3792 249.852 92.2173 250.222 91.8819L250.684 92.8186C250.43 93.0499 250.118 93.2234 249.759 93.3274C249.401 93.4315 249.031 93.4893 248.649 93.4893V93.5009Z" fill="black"/>
<path d="M268.772 93.5003C267.824 93.5003 266.969 93.2922 266.217 92.8643C265.465 92.448 264.875 91.8698 264.448 91.1297C264.02 90.3896 263.812 89.5454 263.812 88.5972C263.812 87.6489 264.02 86.7816 264.448 86.0531C264.875 85.3245 265.465 84.7463 266.217 84.33C266.969 83.9137 267.813 83.7056 268.772 83.7056C269.594 83.7056 270.334 83.8675 270.993 84.1797C271.652 84.4919 272.172 84.9776 272.554 85.6021L271.583 86.2612C271.259 85.7755 270.842 85.4171 270.357 85.1858C269.871 84.9545 269.339 84.8388 268.761 84.8388C268.079 84.8388 267.466 84.9892 266.911 85.3014C266.356 85.6136 265.928 86.0531 265.616 86.6081C265.303 87.1748 265.141 87.8339 265.141 88.5856C265.141 89.3373 265.303 89.9964 265.616 90.563C265.928 91.1297 266.367 91.5576 266.911 91.8698C267.466 92.182 268.079 92.3323 268.761 92.3323C269.339 92.3323 269.871 92.2167 270.357 91.9854C270.842 91.7541 271.259 91.3957 271.583 90.9215L272.554 91.5807C272.172 92.2051 271.652 92.6793 270.993 93.0031C270.334 93.3268 269.594 93.4887 268.772 93.4887V93.5003Z" fill="black"/>
<path d="M287.169 93.4086V83.7989H288.418V86.4124L288.291 85.9498C288.557 85.2213 289.008 84.6546 289.644 84.273C290.28 83.8914 291.066 83.6948 292.003 83.6948V84.9553C292.003 84.9553 291.91 84.9553 291.852 84.9553C291.806 84.9553 291.76 84.9553 291.702 84.9553C290.684 84.9553 289.898 85.2675 289.32 85.8804C288.742 86.4933 288.464 87.3722 288.464 88.5055V93.4086H287.169Z" fill="black"/>
<path d="M308.447 93.5003C307.73 93.5003 307.106 93.3847 306.574 93.1418C306.042 92.899 305.637 92.5752 305.36 92.1589C305.082 91.7426 304.943 91.2569 304.943 90.7018C304.943 90.2046 305.059 89.742 305.302 89.3373C305.545 88.9325 305.926 88.5972 306.47 88.3543C307.013 88.0999 307.742 87.9843 308.655 87.9843H311.974V88.9556H308.702C307.777 88.9556 307.129 89.1175 306.77 89.4529C306.412 89.7883 306.227 90.193 306.227 90.6787C306.227 91.2222 306.435 91.6616 306.863 91.997C307.291 92.3208 307.892 92.4942 308.655 92.4942C309.419 92.4942 310.02 92.3208 310.552 91.9854C311.084 91.6501 311.465 91.1644 311.72 90.5283L312.009 91.4303C311.766 92.0664 311.338 92.5752 310.737 92.9452C310.136 93.3268 309.372 93.5119 308.459 93.5119L308.447 93.5003ZM311.755 93.4078V91.28L311.697 90.9331V87.3829C311.697 86.5619 311.465 85.9374 311.014 85.498C310.552 85.0586 309.881 84.8388 308.979 84.8388C308.355 84.8388 307.765 84.9429 307.198 85.1511C306.632 85.3592 306.158 85.6368 305.776 85.9721L305.186 85.0007C305.672 84.5844 306.262 84.2606 306.944 84.0409C307.626 83.8096 308.343 83.7056 309.106 83.7056C310.355 83.7056 311.315 84.0178 311.986 84.6307C312.657 85.2436 313.003 86.1803 313.003 87.4408V93.4078H311.755Z" fill="black"/>
<path d="M327.123 84.874V83.7986H333.079V84.874H327.123ZM328.835 93.4083V82.5843C328.835 81.7286 329.089 81.0348 329.586 80.5144C330.083 79.994 330.8 79.728 331.749 79.728C332.119 79.728 332.466 79.7743 332.813 79.8784C333.159 79.9709 333.437 80.1328 333.668 80.3409L333.229 81.3123C333.044 81.1504 332.836 81.0348 332.593 80.9538C332.35 80.8729 332.084 80.8382 331.806 80.8382C331.251 80.8382 330.835 80.9885 330.546 81.3007C330.257 81.6014 330.107 82.0524 330.107 82.6537V84.1224L330.141 84.7237V93.4198H328.846L328.835 93.4083Z" fill="black"/>
<path d="M345.405 84.8741V83.7987H351.361V84.8741H345.405ZM349.95 93.5009C349.048 93.5009 348.354 93.2581 347.868 92.7724C347.383 92.2867 347.14 91.5928 347.14 90.7024V81.6709H348.435V90.6215C348.435 91.1881 348.574 91.616 348.863 91.9166C349.152 92.2173 349.557 92.3792 350.1 92.3792C350.678 92.3792 351.153 92.2173 351.523 91.8819L351.985 92.8186C351.731 93.0499 351.419 93.2234 351.06 93.3274C350.702 93.4315 350.332 93.4893 349.95 93.4893V93.5009Z" fill="black"/>
<path d="M370.166 93.5003C369.16 93.5003 368.281 93.2922 367.529 92.8643C366.778 92.448 366.176 91.8698 365.748 91.1297C365.32 90.3896 365.112 89.5454 365.112 88.5972C365.112 87.6489 365.32 86.8047 365.725 86.0762C366.13 85.3477 366.697 84.7695 367.414 84.3416C368.131 83.9137 368.928 83.7056 369.819 83.7056C370.709 83.7056 371.519 83.9137 372.224 84.3185C372.93 84.7232 373.473 85.3014 373.878 86.0415C374.283 86.7816 374.479 87.6373 374.479 88.5972C374.479 88.655 374.479 88.7244 374.479 88.7937C374.479 88.8631 374.479 88.9325 374.479 89.0019H366.107V88.0305H373.774L373.265 88.4121C373.265 87.7183 373.115 87.0938 372.814 86.5503C372.513 86.0068 372.109 85.5789 371.6 85.2783C371.091 84.9776 370.49 84.8157 369.819 84.8157C369.148 84.8157 368.57 84.966 368.038 85.2783C367.518 85.5789 367.101 86.0068 366.812 86.5619C366.523 87.1054 366.373 87.7414 366.373 88.4468V88.6434C366.373 89.3719 366.535 90.0195 366.858 90.5746C367.182 91.1297 367.633 91.5576 368.211 91.8698C368.79 92.182 369.449 92.3323 370.2 92.3323C370.79 92.3323 371.334 92.2283 371.843 92.0201C372.351 91.812 372.791 91.4997 373.149 91.0719L373.878 91.916C373.45 92.4249 372.918 92.818 372.282 93.084C371.646 93.35 370.941 93.4887 370.166 93.4887V93.5003Z" fill="black"/>
<path d="M393.051 93.5006C392.137 93.5006 391.316 93.2924 390.588 92.8761C389.859 92.4598 389.293 91.8816 388.876 91.1415C388.46 90.4014 388.252 89.5572 388.252 88.5859C388.252 87.6145 388.46 86.7587 388.876 86.0186C389.293 85.2901 389.859 84.7119 390.588 84.3072C391.316 83.9024 392.137 83.6943 393.051 83.6943C393.895 83.6943 394.647 83.8793 395.306 84.2609C395.977 84.6425 396.497 85.1976 396.902 85.9146C397.295 86.6431 397.492 87.5335 397.492 88.5743C397.492 89.6151 397.295 90.4939 396.902 91.234C396.509 91.9626 395.988 92.5292 395.318 92.9108C394.658 93.2924 393.895 93.489 393.039 93.489L393.051 93.5006ZM393.144 92.3442C393.826 92.3442 394.439 92.1938 394.982 91.8816C395.526 91.5694 395.954 91.1299 396.266 90.5633C396.578 89.9967 396.728 89.3375 396.728 88.5974C396.728 87.8573 396.578 87.1866 396.266 86.62C395.954 86.0533 395.526 85.6255 394.982 85.3132C394.439 85.001 393.826 84.8507 393.144 84.8507C392.461 84.8507 391.872 85.001 391.328 85.3132C390.796 85.6255 390.368 86.0649 390.044 86.62C389.732 87.1866 389.57 87.8458 389.57 88.5974C389.57 89.3491 389.732 89.9967 390.044 90.5633C390.357 91.1299 390.784 91.5694 391.328 91.8816C391.86 92.1938 392.473 92.3442 393.144 92.3442ZM396.763 93.4081V90.517L396.89 88.5743L396.705 86.6315V79.8203H398V93.4081H396.752H396.763Z" fill="black"/>
<path d="M429.096 84.874V83.7986H435.051V84.874H429.096ZM430.819 93.4083V82.5843C430.819 81.7286 431.073 81.0348 431.57 80.5144C432.068 79.994 432.785 79.728 433.733 79.728C434.103 79.728 434.45 79.7743 434.797 79.8784C435.144 79.9709 435.421 80.1328 435.653 80.3409L435.213 81.3123C435.028 81.1504 434.82 81.0348 434.577 80.9538C434.334 80.8729 434.068 80.8382 433.791 80.8382C433.236 80.8382 432.819 80.9885 432.53 81.3007C432.241 81.6014 432.091 82.0524 432.091 82.6537V84.1224L432.125 84.7237V93.4198H430.83L430.819 93.4083Z" fill="black"/>
<path d="M452.639 93.5011C451.702 93.5011 450.858 93.293 450.129 92.8651C449.401 92.4488 448.823 91.859 448.395 91.1189C447.967 90.3788 447.759 89.5347 447.759 88.5864C447.759 87.6382 447.967 86.7709 448.395 86.0423C448.823 85.3138 449.401 84.7356 450.129 84.3193C450.858 83.903 451.702 83.6948 452.639 83.6948C453.576 83.6948 454.431 83.903 455.171 84.3308C455.911 84.7471 456.49 85.3254 456.906 86.0539C457.322 86.7824 457.542 87.6266 457.542 88.5864C457.542 89.5462 457.334 90.3788 456.906 91.1189C456.49 91.859 455.9 92.4372 455.16 92.8535C454.42 93.2814 453.575 93.4896 452.627 93.4896L452.639 93.5011ZM452.639 92.3447C453.333 92.3447 453.946 92.1944 454.489 91.8822C455.021 91.5699 455.449 91.1305 455.761 90.5639C456.073 89.9972 456.224 89.3381 456.224 88.598C456.224 87.8579 456.073 87.1872 455.761 86.6205C455.449 86.0539 455.021 85.626 454.489 85.3138C453.957 85.0016 453.344 84.8512 452.662 84.8512C451.98 84.8512 451.367 85.0016 450.835 85.3138C450.303 85.626 449.875 86.0655 449.551 86.6205C449.239 87.1872 449.077 87.8463 449.077 88.598C449.077 89.3496 449.239 89.9972 449.551 90.5639C449.863 91.1305 450.291 91.5699 450.823 91.8822C451.355 92.1944 451.957 92.3447 452.65 92.3447H452.639Z" fill="black"/>
<path d="M472.287 93.4086V83.7989H473.536V86.4124L473.409 85.9498C473.675 85.2213 474.126 84.6546 474.762 84.273C475.398 83.8914 476.184 83.6948 477.121 83.6948V84.9553C477.121 84.9553 477.028 84.9553 476.971 84.9553C476.924 84.9553 476.878 84.9553 476.82 84.9553C475.803 84.9553 475.016 85.2675 474.438 85.8804C473.86 86.4933 473.582 87.3722 473.582 88.5055V93.4086H472.287Z" fill="black"/>
<path d="M508.864 93.4082V80.5952H510.217V92.2402H517.399V93.4082H508.864Z" fill="black"/>
<path d="M532.12 81.6706C531.854 81.6706 531.623 81.578 531.438 81.393C531.253 81.208 531.16 80.9883 531.16 80.7339C531.16 80.4795 531.253 80.2597 531.438 80.0863C531.623 79.9128 531.842 79.8203 532.12 79.8203C532.397 79.8203 532.617 79.9013 532.802 80.0747C532.987 80.2482 533.08 80.4563 533.08 80.7107C533.08 80.9652 532.987 81.208 532.814 81.393C532.64 81.578 532.409 81.6706 532.132 81.6706H532.12ZM531.461 93.4081V83.7983H532.756V93.4081H531.461Z" fill="black"/>
<path d="M546.967 84.874V83.7986H552.922V84.874H546.967ZM548.69 93.4083V82.5843C548.69 81.7286 548.944 81.0348 549.442 80.5144C549.939 79.994 550.656 79.728 551.604 79.728C551.974 79.728 552.321 79.7743 552.668 79.8784C553.015 79.9709 553.292 80.1328 553.524 80.3409L553.084 81.3123C552.899 81.1504 552.691 81.0348 552.448 80.9538C552.205 80.8729 551.939 80.8382 551.662 80.8382C551.107 80.8382 550.69 80.9885 550.401 81.3007C550.112 81.6014 549.962 82.0524 549.962 82.6537V84.1224L549.997 84.7237V93.4198H548.701L548.69 93.4083Z" fill="black"/>
<path d="M570.685 93.5003C569.679 93.5003 568.8 93.2922 568.049 92.8643C567.297 92.448 566.696 91.8698 566.268 91.1297C565.84 90.3896 565.632 89.5454 565.632 88.5972C565.632 87.6489 565.84 86.8047 566.245 86.0762C566.649 85.3477 567.216 84.7695 567.933 84.3416C568.65 83.9137 569.448 83.7056 570.338 83.7056C571.229 83.7056 572.038 83.9137 572.744 84.3185C573.449 84.7232 573.993 85.3014 574.397 86.0415C574.802 86.7816 574.999 87.6373 574.999 88.5972C574.999 88.655 574.999 88.7244 574.999 88.7937C574.999 88.8631 574.999 88.9325 574.999 89.0019H566.626V88.0305H574.293L573.784 88.4121C573.784 87.7183 573.634 87.0938 573.333 86.5503C573.033 86.0068 572.628 85.5789 572.119 85.2783C571.61 84.9776 571.009 84.8157 570.338 84.8157C569.668 84.8157 569.089 84.966 568.558 85.2783C568.037 85.5789 567.621 86.0068 567.332 86.5619C567.043 87.1054 566.892 87.7414 566.892 88.4468V88.6434C566.892 89.3719 567.054 90.0195 567.378 90.5746C567.702 91.1297 568.153 91.5576 568.731 91.8698C569.309 92.182 569.968 92.3323 570.72 92.3323C571.31 92.3323 571.853 92.2283 572.362 92.0201C572.871 91.812 573.31 91.4997 573.669 91.0719L574.397 91.916C573.969 92.4249 573.438 92.818 572.802 93.084C572.165 93.35 571.46 93.4887 570.685 93.4887V93.5003Z" fill="black"/>
</svg>
