<svg width="18" height="18" viewBox="0 0 18 18" fill="none" xmlns="http://www.w3.org/2000/svg">
<path d="M12.3085 0H5.25445C2.35668 0 0 2.35668 0 5.25445V12.3085C0 15.205 2.35668 17.5629 5.25445 17.5629H12.3085C15.205 17.5629 17.5629 15.2062 17.5629 12.3085V5.25445C17.5629 2.35668 15.205 0 12.3085 0ZM16.8332 12.3085C16.8332 14.8032 14.8032 16.8332 12.3085 16.8332H5.25445C2.75973 16.8332 0.729682 14.8032 0.729682 12.3085V5.25445C0.729682 2.75973 2.75973 0.729682 5.25445 0.729682H12.3085C14.8032 0.729682 16.8332 2.75973 16.8332 5.25445V12.3085Z" fill="black"/>
<path d="M13.7506 5.18053C13.7419 5.1719 13.7321 5.16327 13.7272 5.15957C13.4794 4.93648 13.1602 4.81445 12.8274 4.81445H4.97589C4.6431 4.81445 4.32386 4.93771 4.08105 5.15588C4.07119 5.1645 4.06133 5.17313 4.04653 5.18792C3.77783 5.4443 3.62869 5.79065 3.62869 6.16165V11.7711C3.62869 12.1421 3.7766 12.4872 4.0416 12.7399L4.0527 12.751C4.06133 12.7596 4.07119 12.7682 4.07612 12.7719C4.32386 12.995 4.6431 13.1171 4.97589 13.1171H12.8274C13.1602 13.1171 13.4794 12.9938 13.7222 12.7756C13.7321 12.7682 13.7419 12.7596 13.7567 12.7436C14.0254 12.486 14.1746 12.1409 14.1746 11.7699V6.16042C14.1746 5.79065 14.0279 5.44676 13.7604 5.19039L13.7518 5.18053H13.7506ZM13.4646 6.16165V11.7711C13.4646 11.8266 13.4572 11.882 13.4437 11.935L10.5077 8.96699L13.4437 5.99895C13.4572 6.05195 13.4646 6.10742 13.4646 6.16289V6.16165ZM7.79602 9.47111L8.11648 9.79527C8.32602 10.0073 8.60458 10.1231 8.90287 10.1231C9.20115 10.1231 9.47971 10.006 9.68925 9.79527L10.0097 9.47111L12.9087 12.4034C12.8828 12.4071 12.8557 12.4083 12.8286 12.4083H4.97713C4.95001 12.4083 4.92289 12.4071 4.89701 12.4034L7.79602 9.47111ZM8.62061 9.29608L8.04623 8.71554L4.89701 5.53058C4.92289 5.52688 4.95001 5.52565 4.97713 5.52565H12.8286C12.8557 5.52565 12.8828 5.52688 12.9087 5.53058L9.18512 9.29732C9.03475 9.44892 8.77221 9.44892 8.62184 9.29732L8.62061 9.29608ZM7.29683 8.96575L4.36084 11.9338C4.34605 11.8808 4.33989 11.8253 4.33989 11.7699V6.16042C4.33989 6.10496 4.34728 6.04949 4.36084 5.99649L7.29683 8.96452V8.96575Z" fill="black"/>
</svg>
