<svg width="19" height="19" viewBox="0 0 19 19" fill="none" xmlns="http://www.w3.org/2000/svg">
<path d="M7.08614 14.4107H10.9271C12.5993 14.4107 13.9603 13.0498 13.9603 11.3775V7.53657C13.9603 5.86435 12.5993 4.50342 10.9271 4.50342H7.08614C5.41391 4.50342 4.05298 5.86435 4.05298 7.53657V11.3775C4.05298 13.0498 5.41391 14.4107 7.08614 14.4107ZM10.9271 5.24434C12.1903 5.24434 13.2193 6.27212 13.2193 7.53657V11.3775C13.2193 12.6407 12.1916 13.6698 10.9271 13.6698H7.08614C5.82297 13.6698 4.79391 12.642 4.79391 11.3775V7.53657C4.79391 6.2734 5.82168 5.24434 7.08614 5.24434H10.9271Z" fill="#0A000F"/>
<path d="M9.2318 11.7085C10.5974 11.7085 11.7086 10.5973 11.7086 9.2317C11.7086 7.86615 10.5974 6.75488 9.2318 6.75488C7.86624 6.75488 6.75498 7.86615 6.75498 9.2317C6.75498 10.5973 7.86624 11.7085 9.2318 11.7085ZM9.2318 7.50378C10.1841 7.50378 10.9585 8.2781 10.9585 9.23043C10.9585 10.1828 10.1841 10.9571 9.2318 10.9571C8.27947 10.9571 7.50514 10.1828 7.50514 9.23043C7.50514 8.2781 8.27947 7.50378 9.2318 7.50378Z" fill="#0A000F"/>
<path d="M5.40398 6.52999C5.40398 6.90304 5.70642 7.20549 6.07948 7.20549C6.45253 7.20549 6.75497 6.90304 6.75497 6.52999C6.75497 6.15693 6.45253 5.85449 6.07948 5.85449C5.70642 5.85449 5.40398 6.15693 5.40398 6.52999Z" fill="#0A000F"/>
<path d="M5.52393 18.4636H12.9397C15.9861 18.4636 18.4636 15.9847 18.4636 12.9397V5.52391C18.4636 2.47753 15.9861 0 12.9397 0H5.52393C2.47885 0 1.71661e-05 2.47753 1.71661e-05 5.52391V12.9397C1.71661e-05 15.9847 2.47755 18.4636 5.52393 18.4636ZM12.9397 0.767102C15.5623 0.767102 17.6965 2.90125 17.6965 5.52391V12.9397C17.6965 15.5623 15.5623 17.6965 12.9397 17.6965H5.52393C2.90127 17.6965 0.767118 15.5623 0.767118 12.9397V5.52391C0.767118 2.90125 2.90127 0.767102 5.52393 0.767102H12.9397Z" fill="#0A000F"/>
</svg>
