<svg width="19" height="19" viewBox="0 0 19 19" fill="none" xmlns="http://www.w3.org/2000/svg">
<path d="M5.5239 18.4636H12.9397C15.986 18.4636 18.4636 15.9847 18.4636 12.9397V5.52391C18.4636 2.47753 15.986 0 12.9397 0H5.5239C2.47882 0 -1.33514e-05 2.47753 -1.33514e-05 5.52391V12.9397C-1.33514e-05 15.9847 2.47752 18.4636 5.5239 18.4636ZM12.9397 0.767102C15.5623 0.767102 17.6965 2.90125 17.6965 5.52391V12.9397C17.6965 15.5623 15.5623 17.6965 12.9397 17.6965H5.5239C2.90124 17.6965 0.767088 15.5623 0.767088 12.9397V5.52391C0.767088 2.90125 2.90124 0.767102 5.5239 0.767102H12.9397Z" fill="#0A000F"/>
<path d="M12.3894 9.92817C12.2148 9.86547 12.0209 9.95174 11.9562 10.1209L10.829 13.0699C10.7644 13.2392 10.8534 13.4272 11.028 13.4899C11.2025 13.5526 11.3965 13.4663 11.4612 13.297L12.5882 10.3481C12.6529 10.1789 12.5639 9.99091 12.3894 9.92817Z" fill="black"/>
<path d="M11.4078 10.3894C11.2962 10.3368 11.1649 10.3508 11.0667 10.4258L9.58811 11.5549C9.50803 11.6161 9.45978 11.7105 9.45705 11.8116C9.45434 11.9128 9.49746 12.0096 9.57412 12.0751L11.1627 13.431C11.2632 13.5169 11.4047 13.5346 11.5231 13.4761C11.6414 13.4177 11.7141 13.2943 11.7083 13.1618L11.5983 10.6767L11.5965 10.6536C11.5835 10.5392 11.5124 10.4388 11.4078 10.3894ZM11.0122 12.4275L10.318 11.8351L10.9642 11.3417L11.0122 12.4275Z" fill="black"/>
<path d="M4.93189 4.54758C4.44119 4.35849 3.94655 4.80682 4.07299 5.31846L6.02252 13.2067L6.0224 13.2068C6.19283 13.8983 7.00864 14.1889 7.57036 13.7575L11.1781 10.9888C11.2563 10.9288 11.3036 10.8364 11.3071 10.7372C11.3106 10.638 11.2698 10.5425 11.196 10.477L9.30641 8.80247L12.029 10.4564C12.1111 10.5063 12.2108 10.5172 12.3016 10.4862L14.8706 9.60871V9.60858C15.4505 9.41191 15.4577 8.5937 14.8942 8.37631L14.8938 8.37618L4.93189 4.54758ZM14.6462 8.9878L12.2358 9.81121L6.51546 6.33624C6.37048 6.24816 6.18293 6.28658 6.08326 6.42477C5.98365 6.56296 6.00482 6.75526 6.13201 6.86797L10.4643 10.7072L7.17555 13.2311L7.17542 13.2312C6.98712 13.3759 6.71326 13.2779 6.65633 13.047V13.0468L4.70948 5.16888L14.6462 8.9878Z" fill="black"/>
</svg>
