<svg width="440" height="84" viewBox="0 0 440 84" fill="none" xmlns="http://www.w3.org/2000/svg">
<g clip-path="url(#clip0_34_1300)">
<path d="M80.2194 65.9663C79.709 66.5203 79.1213 67.0849 78.4974 67.7017C64.2786 81.7156 47.4253 87.455 28.0356 80.4507C-0.902176 69.9912 -10.3522 32.9517 13.6311 11.923C30.9845 -3.28799 55.9113 -2.22688 75.8321 7.00423L76.1569 26.9301C68.0524 -2.34188 28.979 -7.57424 16.6574 21.8284C7.72295 43.1394 13.5899 74.6276 39.0322 79.8182C54.014 82.876 68.5834 73.9167 78.5799 62.9136L80.2194 65.9663Z" fill="black"/>
<path d="M263.687 65.9663C263.177 66.5203 262.589 67.0849 261.965 67.7017C247.747 81.7156 230.893 87.455 211.504 80.4506C182.566 69.9964 173.116 32.9517 197.094 11.9282C214.447 -3.28801 239.379 -2.22167 259.295 7.00944L259.62 26.9353C251.515 -2.33145 212.442 -7.5638 200.12 21.8388C191.186 43.1498 197.053 74.6381 222.495 79.8286C237.477 82.8865 252.046 73.9272 262.043 62.9241L263.682 65.9767L263.687 65.9663Z" fill="black"/>
<path d="M300.487 78.0408C297.982 77.0267 295.579 75.6886 293.342 73.9793C272.617 58.1411 280.757 27.1808 297.905 11.8862C308.087 2.80148 320.001 1.68287 329.853 5.7339L330.575 3.95667C320.805 -0.0682202 310.118 -1.32796 299.4 1.62537C268.807 10.0672 261.527 47.6085 283.155 69.7244C288.202 74.8889 293.636 78.5165 299.363 80.7903L300.482 78.0408H300.487Z" fill="black"/>
<path d="M299.276 77.5342C301.761 78.6058 304.39 79.3689 307.169 79.7505C332.885 83.3049 348.609 55.5071 347.057 32.4031C346.139 18.6819 338.458 9.38284 328.647 5.22205L329.369 3.44482C339.097 7.5638 347.567 14.2963 353.12 24.0502C368.978 51.8846 348.073 83.7388 317.351 84.0001C310.18 84.0629 303.802 82.7613 298.157 80.2837L299.276 77.5342Z" fill="black"/>
<path d="M116.261 78.0408C113.756 77.0267 111.353 75.6886 109.116 73.9793C88.3908 58.1411 96.5313 27.1808 113.678 11.8862C123.861 2.80148 135.775 1.68287 145.627 5.7339L146.349 3.95667C136.579 -0.0682202 125.892 -1.32796 115.174 1.62537C84.5809 10.0672 77.3013 47.6085 98.9286 69.7244C103.976 74.8889 109.41 78.5165 115.137 80.7903L116.256 78.0408H116.261Z" fill="black"/>
<path d="M115.05 77.5342C117.535 78.6058 120.164 79.3689 122.943 79.7505C148.658 83.3049 164.383 55.5071 162.831 32.4031C161.913 18.6819 154.232 9.38284 144.421 5.22205L145.142 3.44482C154.871 7.5638 163.341 14.2963 168.894 24.0502C184.752 51.8846 163.847 83.7388 133.125 84.0001C125.954 84.0629 119.576 82.7613 113.931 80.2837L115.05 77.5342Z" fill="black"/>
<path d="M154.845 12.1792L155.891 11.0763C153.01 8.25884 149.437 6.9416 145.235 7.10364C126.356 7.91385 103.981 31.4516 83.5394 57.2841C81.5906 59.7461 77.7652 63.8703 77.5693 64.0794L79.281 67.085C79.482 66.8132 83.2094 62.8353 84.7922 61.032C105.177 37.8078 127.382 12.2001 146.508 13.9512C151.252 14.385 160.439 18.4936 162.521 29.413L161.263 19.0895C159.454 16.0629 157.309 13.7578 154.85 12.174" fill="black"/>
<path d="M440 1.14453H428.277V1.65156L429.529 1.84497C431.442 2.14291 432.86 3.81037 432.86 5.77577V67.6127L430.292 64.534L377.361 1.14453H362.632L362.725 1.22294C365.993 3.91491 367.89 7.96071 367.89 12.2261V78.9399C367.89 80.0533 367.107 81.0047 366.029 81.2033L363.549 81.658V82.2226H375.273V81.658L372.747 81.1981C371.664 80.9994 370.881 80.0481 370.881 78.9347V9.38249L430.287 78.6681L432.855 81.6633V81.6737L433.267 82.1546H435.84V5.72873C435.84 3.78946 437.221 2.12723 439.108 1.80838L439.995 1.65679V1.14976L440 1.14453Z" fill="black"/>
</g>
<defs>
<clipPath id="clip0_34_1300">
<rect width="440" height="84" fill="white"/>
</clipPath>
</defs>
</svg>
