<svg width="440" height="133" viewBox="0 0 440 133" fill="none" xmlns="http://www.w3.org/2000/svg">
<g clip-path="url(#clip0_192_440)">
<path d="M222.5 79.8001C197.1 74.6001 191.2 43.1001 200.1 21.8001C212.4 -7.59988 251.5 -2.39988 259.6 26.9001L259.3 7.00012C239.4 -2.19988 214.5 -3.29988 197.1 11.9001C173.1 32.9001 182.6 70.0001 211.5 80.4001C230.9 87.4001 247.7 81.7001 262 67.7001C262.6 67.1001 263.2 66.5001 263.7 66.0001L262.1 63.0001C252.1 74.0001 237.5 83.0001 222.6 79.9001L222.5 79.8001Z" fill="black"/>
<path d="M353.1 24.0998C347.8 14.6998 339.8 8.19976 330.5 3.99976C330.4 3.99976 330.2 3.89976 330 3.79976C329.7 3.69976 329.5 3.59976 329.2 3.49976C319.8 -0.100238 309.5 -1.20024 299.2 1.69976C268.6 10.0998 261.3 47.6998 283 69.7998C287.7 74.5998 292.7 78.0998 298 80.2998C298.2 80.2998 298.3 80.3998 298.5 80.4998C298.7 80.5998 299 80.6998 299.2 80.7998C304.5 82.8998 310.5 84.0998 317.2 83.9998C347.9 83.6998 368.8 51.8998 353 24.0998H353.1ZM307.2 79.7998C304.6 79.3998 302.2 78.7998 299.9 77.7998C297.6 76.7998 295.4 75.5998 293.4 73.9998C272.7 58.1998 280.8 27.1998 298 11.8998C308 2.99976 319.7 1.79976 329.4 5.59976C338.9 9.89976 346.2 19.0998 347.1 32.4998C348.7 55.5998 332.9 83.3998 307.2 79.7998Z" fill="black"/>
<path d="M168.9 24.0998C163.6 14.7998 155.6 8.19976 146.3 3.99976C146.1 3.99976 146 3.89976 145.8 3.79976C145.6 3.69976 145.3 3.59976 145.1 3.49976C135.7 -0.100238 125.4 -1.20024 115.1 1.69976C92.0001 8.09976 82.2001 31.0998 88.1001 51.5998C86.5001 53.4998 85.0001 55.4998 83.4001 57.3998C82.0001 59.0998 79.8001 61.5998 78.5001 63.0998C68.5001 74.0998 53.9001 82.9998 39.0001 79.9998C13.6001 74.7998 7.70008 43.2998 16.6001 21.9998C28.9001 -7.40024 68.0001 -2.20024 76.1001 27.0998L75.8001 7.19976C55.9001 -2.20024 31.0001 -3.30024 13.6001 11.8998C-10.3999 32.9998 -0.89992 69.9998 28.0001 80.4998C47.4001 87.4998 64.2001 81.7998 78.5001 67.7998C78.8001 67.5998 79.0001 67.2998 79.2001 67.0998C79.4001 66.8998 83.1001 62.9998 84.7001 61.0998C86.3001 59.2998 87.9001 57.3998 89.5001 55.5998C91.6001 60.6998 94.6001 65.4998 98.8001 69.7998C103.5 74.5998 108.5 78.0998 113.8 80.2998C114 80.2998 114.1 80.3998 114.3 80.4998C114.5 80.5998 114.8 80.6998 115 80.7998C120.3 82.8998 126.3 84.0998 133 83.9998C163.7 83.6998 184.6 51.8998 168.8 24.0998H168.9ZM113.7 11.8998C123.7 2.99976 135.4 1.79976 145.1 5.59976C146.2 6.09976 147.3 6.69976 148.4 7.29976C147.4 7.09976 146.3 7.09976 145.2 7.09976C130.6 7.69976 113.8 21.9998 97.5001 40.3998C99.6001 29.5998 105.6 18.9998 113.6 11.8998H113.7ZM122.9 79.7998C120.3 79.3998 117.9 78.7998 115.6 77.7998C113.3 76.7998 111.1 75.5998 109.1 73.9998C100.1 67.1998 96.6001 57.4998 96.8001 47.4998C113.7 28.8998 131.1 12.5998 146.5 13.9998C151.2 14.3998 160.3 18.4998 162.5 29.1998C162.7 30.2998 162.8 31.2998 162.9 32.3998C164.5 55.4998 148.7 83.2998 123 79.6998L122.9 79.7998Z" fill="black"/>
<path d="M428.3 1.1001V1.6001L429.6 1.8001C431.5 2.1001 432.9 3.8001 432.9 5.7001V67.5001L430.3 64.4001L377.4 1.1001H362.7C366 3.9001 367.9 7.9001 367.9 12.2001V78.9001C367.9 80.0001 367.1 81.0001 366 81.2001L363.5 81.7001V82.3001H375.2V81.7001L372.7 81.2001C371.6 81.0001 370.8 80.0001 370.8 78.9001V9.4001L430.2 78.7001L432.8 81.7001L433.2 82.2001H435.8V5.7001C435.8 3.8001 437.2 2.1001 439.1 1.8001L440 1.6001V1.1001H428.3Z" fill="black"/>
<path d="M367.1 125H373.9V123.5H367.1V118.1H374.5V116.6H365.6V132H374.6V130.5H367.1V125Z" fill="black"/>
<path d="M358.7 124C359.3 123.2 359.6 122.3 359.6 121.2C359.6 120.1 359.1 118.9 358.2 117.9C357.3 116.9 356.2 116.5 354.9 116.5H348.7V131.9H350.2V125.7H354.5L358.1 131.9H359.9L356.1 125.5C357.1 125.2 357.9 124.7 358.5 123.9L358.7 124ZM350.4 124.4V118.1H355C355.9 118.1 356.6 118.4 357.2 119C357.8 119.6 358.1 120.4 358.1 121.2C358.1 122 357.8 122.8 357.2 123.4C356.6 124 355.9 124.3 355 124.3H350.4V124.4Z" fill="black"/>
<path d="M334.9 116.3C332.7 116.3 330.8 117.1 329.2 118.6C327.7 120.1 326.9 122 326.9 124.2C326.9 126.4 327.7 128.3 329.2 129.9C330.7 131.4 332.6 132.2 334.9 132.2C337.2 132.2 339 131.4 340.6 129.9C342.1 128.3 342.9 126.4 342.9 124.2C342.9 122 342.1 120.1 340.6 118.6C339.1 117 337.2 116.3 334.9 116.3ZM339.5 128.9C338.3 130.1 336.7 130.8 334.9 130.8C333.1 130.8 331.6 130.2 330.3 128.9C329 127.6 328.5 126.1 328.5 124.3C328.5 122.5 329.1 121 330.3 119.7C331.5 118.4 333.1 117.8 334.9 117.8C336.7 117.8 338.2 118.4 339.5 119.7C340.7 120.9 341.3 122.5 341.3 124.3C341.3 126.1 340.7 127.7 339.5 128.9Z" fill="black"/>
<path d="M312.2 118.1H317V132H318.5V118.1H323.2V116.6H312.2V118.1Z" fill="black"/>
<path d="M306.1 124.7C305.9 124.6 305.6 124.4 305.1 124.2C304.6 124 304.3 123.9 304 123.8L302.8 123.4C301.6 123 300.7 122.6 300.2 122.2C299.7 121.8 299.4 121.3 299.4 120.5C299.4 119.7 299.7 119 300.3 118.6C300.9 118.1 301.7 117.9 302.6 117.9C304.4 117.9 305.7 118.8 306.4 120.5L307.7 119.8C307.3 118.8 306.6 118 305.7 117.4C304.8 116.8 303.8 116.5 302.6 116.5C301.4 116.5 300.1 116.9 299.2 117.6C298.3 118.3 297.8 119.4 297.8 120.7C297.8 122 298.4 123.1 299.6 123.8C300.1 124.1 301.1 124.5 302.8 125.1C304.2 125.5 305.1 126 305.7 126.4C306.3 126.8 306.6 127.4 306.6 128.2C306.6 129 306.3 129.7 305.6 130.2C305 130.7 304.1 130.9 302.9 130.9C301.7 130.9 300.8 130.6 300 130.1C299.3 129.6 298.7 128.8 298.5 127.9L297.2 128.7C297.6 129.9 298.3 130.8 299.3 131.5C300.3 132.2 301.5 132.5 302.9 132.5C304.3 132.5 305.7 132.1 306.7 131.3C307.7 130.5 308.1 129.5 308.1 128.2C308.1 126.9 307.9 126.8 307.5 126.2C307.3 125.8 306.8 125.4 306 124.9L306.1 124.7Z" fill="black"/>
<path d="M275.9 125H282.7V123.5H275.9V118.1H283.3V116.6H274.4V132H283.4V130.5H275.9V125Z" fill="black"/>
<path d="M267.5 116.6H266V132H267.5V116.6Z" fill="black"/>
<path d="M259.1 124C259.7 123.2 260 122.3 260 121.2C260 120.1 259.5 118.9 258.6 117.9C257.7 116.9 256.6 116.5 255.3 116.5H249.1V131.9H250.6V125.7H254.9L258.5 131.9H260.3L256.5 125.5C257.5 125.2 258.3 124.7 258.9 123.9L259.1 124ZM250.8 124.4V118.1H255.4C256.3 118.1 257 118.4 257.6 119C258.2 119.6 258.5 120.4 258.5 121.2C258.5 122 258.2 122.8 257.6 123.4C257 124 256.3 124.3 255.4 124.3H250.8V124.4Z" fill="black"/>
<path d="M235.8 125H242.7V123.5H235.8V118.1H243.2V116.6H234.3V132H243.3V130.5H235.8V125Z" fill="black"/>
<path d="M220.7 126.1H226.8C226.6 127.4 226 128.6 225 129.4C224 130.3 222.6 130.7 220.8 130.7C219 130.7 217.3 130.1 216.1 128.8C214.9 127.5 214.3 126 214.3 124.2C214.3 122.4 214.9 120.9 216.1 119.6C217.3 118.4 218.9 117.7 220.8 117.7C222.7 117.7 223 118 223.9 118.5C224.9 119.1 225.6 119.8 226.1 120.7L227.5 119.9C226.9 118.8 225.9 117.8 224.7 117.1C223.5 116.4 222.2 116.1 220.8 116.1C218.5 116.1 216.5 116.9 215 118.4C213.5 120 212.7 121.8 212.7 124.1C212.7 126.4 213.5 128.2 215 129.8C216.5 131.3 218.4 132.1 220.8 132.1C223.2 132.1 224.9 131.4 226.3 130.1C227.7 128.8 228.3 127.2 228.3 125.3V124.5H220.6V126L220.7 126.1Z" fill="black"/>
<path d="M205.3 129.1L196.7 116.6H195.4V132H196.9V119.5L205.5 132H206.8V116.6H205.3V129.1Z" fill="black"/>
<path d="M188.5 116.6H187V132H188.5V116.6Z" fill="black"/>
<path d="M174.5 116.6H172.9V132H181.5V130.5H174.5V116.6Z" fill="black"/>
<path d="M152.5 124.1L147.9 116.6H146.2L151.8 125.6V132H153.3V125.7L158.9 116.6H157.1L152.5 124.1Z" fill="black"/>
<path d="M141.3 124C141.9 123.2 142.2 122.3 142.2 121.2C142.2 120.1 141.7 118.9 140.8 117.9C139.9 117 138.8 116.5 137.5 116.5H131.3V131.9H132.8V125.7H137.1L140.7 131.9H142.5L138.7 125.5C139.7 125.2 140.5 124.7 141.1 123.9L141.3 124ZM133 124.4V118.1H137.6C138.5 118.1 139.2 118.4 139.8 119C140.4 119.6 140.7 120.4 140.7 121.2C140.7 122 140.4 122.8 139.8 123.4C139.2 124 138.5 124.3 137.6 124.3H133V124.4Z" fill="black"/>
<path d="M123.3 126.8C123.3 128 122.9 129 122.2 129.7C121.5 130.4 120.4 130.8 119.1 130.8C117.8 130.8 116.8 130.4 116 129.7C115.3 129 114.9 128 114.9 126.8V116.6H113.4V126.8C113.4 128.5 113.9 129.8 115 130.8C116.1 131.8 117.4 132.3 119.1 132.3C120.8 132.3 122.2 131.8 123.2 130.8C124.3 129.8 124.8 128.5 124.8 126.8V116.6H123.3V126.8Z" fill="black"/>
<path d="M108 116.6H106.3L102.4 122.7L98.5 116.6H96.8L101.5 124.1L96.5 132H98.2L102.4 125.4L106.6 132H108.3L103.3 124.1L108 116.6Z" fill="black"/>
<path d="M89.7999 126.8C89.7999 128 89.3999 129 88.6999 129.7C87.9999 130.4 86.8999 130.8 85.5999 130.8C84.2999 130.8 83.2999 130.4 82.4999 129.7C81.7999 129 81.3999 128 81.3999 126.8V116.6H79.8999V126.8C79.8999 128.5 80.3999 129.8 81.4999 130.8C82.5999 131.8 83.8999 132.3 85.5999 132.3C87.2999 132.3 88.6999 131.8 89.6999 130.8C90.7999 129.8 91.2999 128.5 91.2999 126.8V116.6H89.7999V126.8Z" fill="black"/>
<path d="M67.7998 116.6H66.2998V132H74.8998V130.5H67.7998V116.6Z" fill="black"/>
</g>
<defs>
<clipPath id="clip0_192_440">
<rect width="440" height="133" fill="white"/>
</clipPath>
</defs>
</svg>
