<svg width="1440" height="677" viewBox="0 0 1440 677" fill="none" xmlns="http://www.w3.org/2000/svg">
<rect width="1440" height="677" fill="#FFFCF8"/>
<g clip-path="url(#clip0_221_1635)">
<path d="M1200.73 0H243.268V677H1200.73V0Z" fill="#FFFCF8"/>
<path fill-rule="evenodd" clip-rule="evenodd" d="M709.336 301.026C709.518 302.505 711.702 303.074 713.578 303.29C722.586 304.359 728.499 301.777 729.307 300.446C731.593 296.693 720.664 294.589 712.27 297.751C710.667 298.354 709.154 299.696 709.336 301.015V301.026Z" fill="#FFBA02"/>
<path fill-rule="evenodd" clip-rule="evenodd" d="M714.454 324.102C714.534 324.113 714.591 324.136 714.67 324.147C716.069 326.638 718.912 327.923 721.903 327.548C726.6 326.968 726.805 323.328 726.987 320.258C727.885 319.177 729.091 318.927 729.421 317.562C724.872 317.574 715.876 318.541 709.45 324.602C710.94 323.783 712.76 323.818 714.454 324.102Z" fill="#FFBA02"/>
<path fill-rule="evenodd" clip-rule="evenodd" d="M699.26 423.955C697.724 425.217 694.665 425.081 693.278 423.318C691.39 420.918 691.742 417.472 692.447 414.493C697.235 394.045 714.329 377.963 712.145 363.702C706.447 360.574 692.527 362.894 683.031 366.5C673.444 370.162 667.075 373.79 664.129 371.652C664.129 371.652 656.441 371.652 654.917 366.807C653.393 361.962 655.179 355.866 655.179 355.866C655.179 355.866 649.447 353.068 651.119 346.336C652.256 341.775 662.855 329.163 670.725 321.327C675.866 316.221 684.282 310.238 690.605 305.416C688.785 305.246 686.977 304.836 685.271 304.188C683.292 303.426 681.393 302.334 680.108 300.663C678.8 299.002 678.197 296.693 678.902 294.726C679.71 292.474 682.019 291.053 684.361 290.62C686.704 290.2 689.104 290.609 691.458 290.996C689.707 290.302 688.376 288.971 687.512 287.368C687.5 287.368 687.5 287.356 687.5 287.334C687.318 287.106 687.045 286.685 686.784 286.037C686.329 284.968 685.931 283.274 686.238 281.192C686.249 281.09 686.272 280.965 686.295 280.863C684.612 279.316 682.735 277.473 681.586 276.359C677.936 272.811 674.035 269.444 670.384 265.862C665.756 261.313 669.543 253.409 675.957 254.341C679.573 254.864 683.452 256.047 687.307 257.719C696.382 261.654 714.113 275.87 719.742 285.423C725.872 280.408 737.472 280.419 738.621 280.419C736.938 277.724 733.026 270.183 719.936 262.586C710.598 257.173 706.083 246.175 704.036 235.576C703.434 232.38 703.081 228.684 707.425 226.341C709.45 225.261 711.906 225.898 714.067 226.66C725.44 230.697 736.13 237.009 744.376 245.834C751.791 253.795 757.09 263.906 758.671 274.63C758.705 274.63 758.683 274.642 758.683 274.642C761.56 279.066 762.379 283.808 760.718 286.981C761.037 287.174 761.355 287.379 761.696 287.572C761.708 287.584 761.731 287.584 761.742 287.607C779.813 296.148 793.529 314.753 799.079 334.064C799.818 336.68 796.827 338.796 794.609 337.215C793.699 336.566 792.881 335.941 792.289 335.532C800.614 348.69 802.229 365.135 800.432 380.602C799.477 388.733 797.669 396.694 795.565 404.633C812.999 441.89 800.58 465.204 816.763 482.684C820.767 480.102 822.598 479.09 830.081 472.278C869.056 440.673 893.928 392.35 893.723 338.216C893.382 244.515 816.991 167.828 723.29 167.157C627.884 166.475 550.333 243.605 550.333 338.852C550.333 428.334 618.786 501.802 706.174 509.808C703.149 506.783 680.244 471.004 699.294 423.944L699.26 423.955Z" fill="#FFBA02"/>
<path fill-rule="evenodd" clip-rule="evenodd" d="M742.613 270.923C742.465 269.114 742.204 267.113 741.783 264.952C741.521 263.61 741.191 262.234 740.793 260.801C739.758 257.093 737.632 253.306 734.777 249.906C731.923 246.46 728.579 243.764 725.451 241.467C722.324 239.17 719.356 237.271 716.854 235.713C714.352 234.166 712.282 232.972 710.849 232.176C709.689 231.505 708.938 231.107 708.711 230.959C708.119 230.822 707.551 230.868 707.084 231.232C706.266 231.88 706.402 233.165 706.629 234.177C708.62 243.002 712.418 251.703 719.094 257.81C723.2 261.563 728.181 264.167 732.685 267.443C733.856 268.296 735.005 269.217 736.085 270.229C739.11 273.027 741.601 276.382 742.533 280.351C742.533 280.066 742.624 279.225 742.715 277.894C742.818 276.257 742.886 273.868 742.636 270.934L742.613 270.923Z" fill="#FFBA02"/>
<path fill-rule="evenodd" clip-rule="evenodd" d="M666.892 346.074C666.585 345.517 665.892 345.289 665.255 345.358C664.629 345.437 664.072 345.767 663.537 346.12C660.137 348.394 657.464 352.147 655.395 355.718C659.682 353.444 663.333 350.259 667.018 347.109C667.097 346.757 667.074 346.393 666.892 346.074Z" fill="#FFBA02"/>
<path fill-rule="evenodd" clip-rule="evenodd" d="M664.846 370.969C667.143 370.526 670.123 369.081 672.739 366.716C675.343 364.407 677.663 362.337 679.528 361.075C681.336 359.778 682.61 359.221 682.61 359.085C682.576 359.005 681.177 359.392 679.221 360.609C677.231 361.78 674.797 363.827 672.215 366.124C669.668 368.433 666.882 369.866 664.721 370.446C662.56 371.026 661.138 370.856 661.138 370.992C661.104 371.072 662.549 371.447 664.846 370.981V370.969Z" fill="#FFBA02"/>
<path d="M243.268 167.169H1200.73" stroke="#1D1D1B" stroke-width="0.49" stroke-miterlimit="10"/>
<path d="M243.268 509.82H1200.73" stroke="#1D1D1B" stroke-width="0.49" stroke-miterlimit="10"/>
<path d="M550.311 0V677" stroke="#1D1D1B" stroke-width="0.49" stroke-miterlimit="10"/>
<path d="M893.689 0V677" stroke="#1D1D1B" stroke-width="0.49" stroke-miterlimit="10"/>
</g>
<defs>
<clipPath id="clip0_221_1635">
<rect width="957.464" height="677" fill="white" transform="translate(243.268)"/>
</clipPath>
</defs>
</svg>
