<svg width="730" height="460" viewBox="0 0 730 460" fill="none" xmlns="http://www.w3.org/2000/svg">
<g clip-path="url(#clip0_219_187)">
<path fill-rule="evenodd" clip-rule="evenodd" d="M85.0723 223.3C85.0723 223.394 85.0723 223.489 85.0723 223.584C85.2075 223.462 85.3562 223.34 85.5049 223.219L85.0723 223.286V223.3Z" fill="#FFBA02"/>
<path d="M217.69 198.98V202.441C214.743 202.441 213.269 203.401 213.269 205.334V269.398H265.221C266.762 269.398 268.033 269.047 269.074 268.344C270.101 267.641 270.615 266.64 270.615 265.356H274.076V285.567H270.615C270.615 284.539 270.101 283.958 269.074 283.836C268.046 283.714 266.762 283.647 265.221 283.647H189.801V280.186C193.14 280.186 194.803 279.226 194.803 277.293V205.334C194.803 203.414 193.14 202.441 189.801 202.441V198.98H217.703H217.69Z" fill="#1D1D1B"/>
<path d="M124.654 198.98V202.441C121.707 202.441 120.234 203.401 120.234 205.334V269.398H172.186C173.727 269.398 174.998 269.047 176.039 268.344C177.066 267.641 177.58 266.64 177.58 265.356H181.04V285.567H177.58C177.58 284.539 177.066 283.958 176.039 283.836C175.011 283.714 173.727 283.647 172.186 283.647H96.7656V280.186C100.105 280.186 101.767 279.226 101.767 277.293V205.334C101.767 203.414 100.105 202.441 96.7656 202.441V198.98H124.668H124.654Z" fill="#1D1D1B"/>
<path d="M285.039 280.172C286.58 279.916 287.824 279.172 288.797 277.955C289.77 276.739 290.5 275.617 291.014 274.589L319.687 212.052C320.458 210.254 321.066 208.821 321.512 207.726C321.958 206.631 322.188 205.577 322.188 204.549C322.188 203.779 322.026 203.292 321.701 203.103C321.377 202.914 321.025 202.684 320.647 202.427V198.966H349.698V202.427C349.306 202.684 348.901 202.873 348.441 203.008C347.981 203.144 347.765 203.657 347.765 204.549C347.765 205.32 348.049 206.253 348.63 207.334C349.212 208.429 349.82 209.673 350.455 211.092L381.629 276.509C382.265 277.658 382.981 278.496 383.752 279.01C384.522 279.524 385.347 279.902 386.253 280.172V283.633H358.932V280.754C359.567 280.754 360.243 280.564 360.946 280.172C361.649 279.78 362 279.077 362 278.05C362 277.279 361.865 276.577 361.608 275.928C361.351 275.292 361.027 274.454 360.648 273.427L355.457 262.463H314.28L308.899 272.859C308.386 273.886 307.966 274.819 307.642 275.644C307.318 276.482 307.155 277.212 307.155 277.861C307.155 278.888 307.48 279.524 308.115 279.78C308.751 280.037 309.656 280.172 310.805 280.172V283.633H285.025V280.172H285.039ZM349.306 248.228L333.719 215.905L320.066 248.228H349.306Z" fill="#1D1D1B"/>
<path d="M407.031 280.172C407.666 280.051 408.221 279.78 408.667 279.402C409.113 279.023 409.343 278.118 409.343 276.712V206.293C409.343 204.495 409.181 203.414 408.856 203.022C408.532 202.63 407.923 202.441 407.031 202.441V198.98H433.771V202.441C432.487 202.441 431.838 203.022 431.838 204.171C431.838 204.685 432.054 205.361 432.514 206.199C432.96 207.037 433.636 208.213 434.528 209.754L457.996 253.041L481.667 209.943C482.559 208.402 483.262 207.159 483.79 206.185C484.303 205.225 484.56 204.549 484.56 204.157C484.56 203.008 484.046 202.427 483.019 202.427V198.966H510.151V202.427C509.502 202.427 508.894 202.589 508.326 202.914C507.745 203.238 507.461 203.914 507.461 204.942V277.279C507.461 278.307 507.745 279.05 508.326 279.497C508.907 279.943 509.515 280.172 510.151 280.172V283.633H487.832V280.172C490.522 280.172 491.685 279.213 491.292 277.279V223.219H490.9L458.185 283.633H456.644L425.673 223.219H425.862H425.484V277.279C425.484 279.199 426.565 280.172 428.755 280.172V283.633H407.018V280.172H407.031Z" fill="#1D1D1B"/>
<path d="M530.929 280.172C532.47 279.916 533.713 279.172 534.687 277.955C535.66 276.739 536.39 275.617 536.904 274.589L565.577 212.052C566.347 210.254 566.956 208.821 567.402 207.726C567.848 206.631 568.078 205.577 568.078 204.549C568.078 203.779 567.915 203.292 567.591 203.103C567.266 202.914 566.915 202.684 566.536 202.427V198.966H595.588V202.427C595.196 202.684 594.79 202.873 594.331 203.008C593.871 203.144 593.655 203.657 593.655 204.549C593.655 205.32 593.939 206.253 594.52 207.334C595.101 208.429 595.71 209.673 596.345 211.092L627.519 276.509C628.154 277.658 628.871 278.496 629.641 279.01C630.412 279.524 631.236 279.902 632.142 280.172V283.633H604.821V280.754C605.456 280.754 606.132 280.564 606.835 280.172C607.538 279.78 607.89 279.077 607.89 278.05C607.89 277.279 607.755 276.577 607.498 275.928C607.241 275.292 606.917 274.454 606.538 273.427L601.347 262.463H560.169L554.789 272.859C554.275 273.886 553.856 274.819 553.532 275.644C553.207 276.482 553.045 277.212 553.045 277.861C553.045 278.888 553.369 279.524 554.005 279.78C554.64 280.037 555.546 280.172 556.695 280.172V283.633H530.915V280.172H530.929ZM595.196 248.228L579.609 215.905L565.955 248.228H595.196Z" fill="#1D1D1B"/>
<path d="M297.733 331.314C297.733 331.557 297.652 331.733 297.571 331.976C292.191 343.899 285.891 349.374 277.523 349.374C270.642 349.374 266.505 344.819 266.668 338.019C267.168 327.42 275.779 310.184 285.553 310.184C289.69 310.184 292.596 312.334 292.596 316.322C292.596 325.109 280.254 330.408 271.061 332.638C270.48 334.788 270.237 336.37 270.155 338.1C269.993 342.818 272.643 345.724 277.604 345.887C284.404 346.049 289.703 341.25 294.34 330.557C294.759 329.732 295.746 329.313 296.665 329.651C297.328 329.989 297.747 330.651 297.747 331.314H297.733ZM289.109 316.322C289.109 314.091 287.365 313.672 285.54 313.672C279.821 313.672 275.022 322.283 272.373 328.664C279.253 326.515 289.109 322.445 289.109 316.322Z" fill="#1D1D1B"/>
<path d="M330.786 331.232C330.786 331.475 330.705 331.732 330.624 331.976C324.987 344.48 321.093 349.374 315.47 349.374C311.495 349.374 309.508 346.481 309.508 342.412C309.508 334.625 315.97 325.014 315.97 317.808C315.97 315.402 314.888 313.496 311.657 313.496C306.601 313.496 300.315 324.676 297.652 331.719L291.853 348.117C291.515 349.117 290.528 349.523 289.622 349.279C288.716 348.941 288.216 348.036 288.541 347.049C292.853 335.125 298.071 320.12 301.302 311.265C301.545 310.522 302.208 310.103 302.965 310.103C304.209 310.103 305.033 311.346 304.628 312.414L303.965 314.077C306.372 311.59 308.94 310.021 311.671 310.021C317.633 310.021 319.458 313.415 319.458 317.808C319.458 325.176 312.996 336.031 312.996 342.412C312.996 344.818 313.739 345.886 315.483 345.886C319.376 345.886 322.364 341.493 327.407 330.556C327.744 329.894 328.312 329.475 328.975 329.475C329.218 329.475 329.475 329.556 329.718 329.637C330.381 329.975 330.8 330.543 330.8 331.219L330.786 331.232Z" fill="#1D1D1B"/>
<path d="M364.988 331.314C364.988 331.557 364.907 331.814 364.826 332.057C359.689 344.156 352.808 351.862 340.722 355.417C336.748 366.759 331.611 372.653 325.649 372.735C320.674 372.816 317.443 369.585 317.443 364.705C317.443 359.486 321.499 355.674 331.449 353.849C333.517 353.511 335.761 353.106 337.992 352.524L340.479 345.4C338.248 347.725 335.585 349.374 332.611 349.374C327.15 349.374 325.811 345.157 325.811 339.844C326.23 328.907 334.098 310.184 343.953 310.184C347.684 310.184 350.172 311.928 351.578 314.74L352.903 311.347C353.146 310.603 353.808 310.184 354.471 310.184C355.633 310.184 356.701 311.09 356.215 312.59C354.89 315.821 352.646 321.783 349.996 328.826L345.603 341.169L342.128 351.281C351.659 348.05 357.458 340.425 361.595 330.651C361.933 329.989 362.501 329.57 363.177 329.57C363.42 329.57 363.677 329.651 363.92 329.732C364.583 330.07 365.002 330.638 365.002 331.314H364.988ZM336.653 356.418C335.072 356.756 333.585 357.08 332.097 357.323C324.473 358.648 321.242 360.798 320.918 364.61C320.918 367.503 322.824 369.328 325.636 369.247C330.11 369.166 333.923 364.772 336.653 356.404V356.418ZM347.428 325.109L349.253 320.391C349.253 315.997 347.008 313.685 344.034 313.685C336.329 313.848 329.542 331.746 329.367 339.952C329.205 343.345 329.367 345.914 332.435 345.914C339.06 345.914 344.116 333.571 347.428 325.122V325.109Z" fill="#1D1D1B"/>
<path d="M382.049 331.232C382.049 331.476 381.968 331.733 381.887 331.976C377.087 342.331 372.437 349.374 364.826 349.374C360.852 349.374 358.702 346.387 358.702 342.412C358.702 340.006 359.527 337.032 361.595 330.489C363.826 323.946 366.313 316.984 368.719 310.116L373.032 297.531C373.37 296.625 374.357 296.206 375.262 296.449C376.168 296.787 376.668 297.774 376.344 298.68L372.031 311.265C369.706 317.89 367.313 324.514 364.907 331.557C363.082 337.194 362.176 340.912 362.176 342.412C362.176 344.643 363.177 345.886 364.826 345.886C370.788 345.886 374.762 339.006 378.656 330.475C378.994 329.894 379.656 329.475 380.318 329.475C380.562 329.475 380.819 329.556 381.062 329.637C381.643 329.975 382.062 330.543 382.062 331.219L382.049 331.232Z" fill="#1D1D1B"/>
<path d="M397.297 331.232C397.297 331.476 397.216 331.732 397.135 331.976C393.161 340.925 388.848 349.374 381.886 349.374C377.912 349.374 375.762 346.224 375.925 342.412C376.168 335.95 382.062 320.796 385.699 311.346C385.942 310.603 386.604 310.184 387.267 310.184C388.348 310.184 389.416 311.008 388.929 312.414C380.899 335.031 379.399 338.843 379.399 342.399C379.399 344.805 380.142 345.873 381.886 345.873C387.023 345.873 390.836 337.343 393.904 330.543C394.242 329.88 394.905 329.461 395.567 329.461C395.81 329.461 395.986 329.542 396.23 329.624C396.892 329.867 397.311 330.529 397.311 331.205L397.297 331.232ZM387.848 303.154C387.848 301.586 389.173 300.342 390.754 300.342C392.336 300.342 393.566 301.586 393.566 303.154C393.566 304.722 392.323 305.966 390.754 305.966C389.186 305.966 387.848 304.722 387.848 303.154Z" fill="#1D1D1B"/>
<path d="M404.666 349.374C397.785 349.374 392.161 343.994 392.161 337.275C392.661 329.813 396.798 324.933 403.422 324.933C407.735 324.933 411.209 328.745 411.371 333.301C411.371 334.288 410.628 335.045 409.627 335.045C408.627 335.045 407.883 334.301 407.883 333.301C407.721 330.489 405.653 328.407 403.49 328.407C398.934 328.407 395.946 332.219 395.622 337.275C395.622 342.331 399.853 345.887 404.652 345.887C411.358 345.887 416.17 341.493 416.332 334.626C416.251 330.976 415.008 328.583 410.614 320.877C410.033 321.458 409.451 322.121 408.951 322.783C408.613 323.202 408.127 323.446 407.626 323.446C407.207 323.446 406.721 323.365 406.383 323.027C405.964 322.702 405.801 322.121 405.801 321.621C405.801 321.283 405.964 320.877 406.22 320.539C407.221 319.377 408.045 318.471 409.032 317.47C408.289 315.727 407.789 313.915 407.789 312.009C407.789 307.697 410.438 304.06 413.831 304.06C416.238 304.06 417.644 305.966 417.806 308.372C417.806 311.685 415.738 315.335 413.169 318.228C417.481 326.176 419.712 329.083 419.793 334.707C419.631 343.656 413.007 349.374 404.639 349.374H404.666ZM414.278 308.372C414.278 307.21 413.372 307.467 412.534 308.291C411.533 309.292 411.29 310.779 411.29 311.941C411.29 312.847 411.452 313.685 411.709 314.591C413.034 312.766 414.278 310.197 414.278 308.372Z" fill="#1D1D1B"/>
<path d="M462.241 331.313C462.241 331.476 462.16 331.732 462.079 331.976C456.442 344.48 452.549 349.374 446.925 349.374C442.869 349.374 440.963 346.481 440.963 342.412C440.963 334.788 447.425 324.189 447.425 317.808C447.425 315.402 446.343 313.496 443.113 313.496C441.044 313.496 438.719 315.402 436.57 318.052C431.351 324.676 430.608 327.907 423.227 348.117C422.889 349.117 421.902 349.523 420.996 349.28C420.09 348.942 419.59 347.955 419.915 347.049C427.782 325.176 434.907 305.466 437.638 297.422C437.881 296.76 438.543 296.341 439.3 296.341C440.544 296.341 441.369 297.585 440.963 298.666C440.22 300.815 438.395 306.034 435.583 313.915C437.989 311.509 440.476 310.022 443.126 310.022C449.007 310.022 450.913 313.415 450.913 317.808C450.913 324.108 444.451 336.45 444.451 342.412C444.451 344.818 445.194 345.886 446.938 345.886C450.913 345.886 454.144 341.25 458.862 330.556C459.2 329.894 459.767 329.475 460.43 329.475C460.673 329.475 460.93 329.556 461.173 329.637C461.836 329.975 462.255 330.543 462.255 331.3L462.241 331.313Z" fill="#1D1D1B"/>
<path fill-rule="evenodd" clip-rule="evenodd" d="M357.485 69.8911C357.58 70.6616 358.702 70.9726 359.689 71.0672C361.595 71.2429 363.596 71.1213 365.502 70.6616H365.529C366.597 70.4994 367.489 70.3102 367.854 69.5937C368.165 68.9853 367.935 68.2959 367.408 67.8227C366.259 67.4577 364.988 67.1874 363.542 67.0251C363.542 67.0251 363.528 67.0251 363.515 67.0251C361.96 67.1198 360.392 67.5253 359.026 68.2013C358.229 68.5933 357.404 69.2152 357.499 69.8911H357.485Z" fill="#FFBA02"/>
<path fill-rule="evenodd" clip-rule="evenodd" d="M360.148 81.855C360.148 81.855 360.216 81.8686 360.257 81.8821C360.987 83.1799 362.474 83.9369 364.015 83.653C365.664 83.3556 366.84 81.9767 366.935 80.395C367.394 79.8408 367.746 79.1919 367.922 78.4754C365.475 78.2321 362.987 78.6106 360.73 79.5569H360.716C360.486 79.6515 360.257 79.7597 360.027 79.8678C359.743 80.003 359.473 80.1517 359.189 80.3004C358.445 80.706 357.675 81.2873 357.566 82.1254C358.337 81.7063 359.283 81.7199 360.162 81.8686L360.148 81.855Z" fill="#FFBA02"/>
<path fill-rule="evenodd" clip-rule="evenodd" d="M352.267 133.645C351.47 134.294 349.888 134.226 349.158 133.32C348.185 132.077 348.388 130.292 348.726 128.738C350.348 121.086 353.511 113.772 358.013 107.365C358.729 105.729 359.23 104.066 358.946 102.39C350.889 102.552 348.766 101.971 343.845 103.836C338.871 105.742 335.572 107.622 334.044 106.513C334.044 106.513 330.056 106.513 329.272 103.999C328.488 101.484 329.408 98.3207 329.408 98.3207C329.408 98.3207 329.394 98.3072 329.367 98.2802C329.326 98.3072 329.272 98.3478 329.232 98.3613L329.164 98.5641C329.164 98.5641 329.124 98.483 329.11 98.4424C328.988 98.1991 328.894 97.9557 328.826 97.7124C328.029 96.7931 326.758 95.0222 327.312 93.3865C328.11 91.0883 333.396 84.4777 337.478 80.4086C340.141 77.759 344.508 74.6497 347.793 72.1623C346.847 72.0812 345.914 71.8649 345.022 71.5269C343.994 71.1349 343.007 70.5671 342.345 69.7019C341.669 68.8367 341.358 67.6471 341.723 66.6197C342.142 65.4571 343.345 64.7135 344.548 64.4972C345.765 64.2809 347.009 64.4972 348.225 64.7C347.32 64.335 346.63 63.6456 346.171 62.8209C346.171 62.8209 346.171 62.8209 346.171 62.8074C346.076 62.6858 345.941 62.4695 345.806 62.1315C345.576 61.5772 345.36 60.6985 345.522 59.617C345.522 59.563 345.535 59.4954 345.549 59.4413C344.67 58.6437 343.71 57.6839 343.102 57.1026C339.736 53.8446 335.964 50.8705 333.26 47.0448C336.059 44.6925 341.101 45.2873 346.076 47.4368C350.78 49.4781 359.973 56.8457 362.893 61.807C365.286 60.3741 368.071 59.4818 370.842 59.2791C371.477 59.225 372.086 59.2115 372.681 59.2115C371.802 57.8191 371.315 56.3726 371.275 55.1018C370.896 54.7098 370.491 54.3583 370.085 54.0203C368.165 52.4387 365.935 51.2355 363.948 49.7214C359.5 46.3147 356.364 41.2318 355.296 35.7297C354.985 34.0804 355.039 31.9986 356.499 31.1875C357.54 30.6062 358.824 30.9576 359.946 31.3497C365.84 33.4451 371.396 36.7166 375.668 41.2994C379.521 45.4225 382.265 50.6677 383.09 56.2374C384.577 58.5355 385.01 60.9959 384.144 62.6317C384.307 62.7398 384.469 62.8345 384.645 62.9426C384.645 62.9426 384.658 62.9426 384.672 62.9561C394.04 67.3902 401.164 77.029 404.03 87.0462C404.422 88.3981 402.868 89.4931 401.718 88.682C401.245 88.344 400.826 88.0196 400.515 87.8033C404.828 94.6302 405.666 103.16 404.747 111.177C404.246 115.395 403.314 119.518 402.219 123.641C404.057 137.241 404.828 155.058 413.209 164.116C415.278 162.777 416.237 162.25 420.117 158.722C440.246 142.391 453.13 117.463 453.13 89.5201C453.103 40.3395 413.236 0.459717 364.056 0.459717C314.875 0.459717 275.009 40.326 275.009 89.5066C275.009 135.916 310.509 174.025 355.836 178.175C355.471 175.742 342.385 158.046 352.267 133.645Z" fill="#FFBA02"/>
<path fill-rule="evenodd" clip-rule="evenodd" d="M374.749 54.2772C374.668 53.3445 374.533 52.3035 374.317 51.1815C374.181 50.492 374.006 49.7756 373.803 49.032C373.262 47.1124 372.167 45.1522 370.68 43.3813C369.193 41.5968 367.463 40.1909 365.841 39.0012C364.218 37.8116 362.677 36.8248 361.379 36.0136C360.082 35.2025 359.014 34.5942 358.27 34.1751C357.675 33.8236 357.283 33.6208 357.162 33.5397C356.851 33.4721 356.567 33.4857 356.323 33.6884C355.904 34.0264 355.972 34.6888 356.094 35.216C357.121 39.7988 359.095 44.3005 362.556 47.4774C364.678 49.4241 367.273 50.7759 369.599 52.4793C370.207 52.9254 370.802 53.3985 371.37 53.9258C372.938 55.3722 374.236 57.1161 374.709 59.171C374.709 59.0223 374.763 58.5897 374.803 57.9002C374.857 57.0486 374.884 55.8048 374.763 54.2908L374.749 54.2772Z" fill="#FFBA02"/>
<path fill-rule="evenodd" clip-rule="evenodd" d="M335.477 93.2514C335.315 92.954 334.963 92.8458 334.625 92.8864C334.301 92.9269 334.017 93.1027 333.733 93.2784C331.962 94.4545 330.394 96.1849 329.326 98.0369C331.543 96.8608 333.639 95.4279 335.545 93.7921C335.585 93.6164 335.572 93.4271 335.477 93.2514Z" fill="#FFBA02"/>
<path fill-rule="evenodd" clip-rule="evenodd" d="M334.423 106.162C335.612 105.932 337.153 105.188 338.519 103.958C339.871 102.755 341.074 101.687 342.047 101.038C342.98 100.362 343.642 100.078 343.642 100.011C343.629 99.97 342.899 100.173 341.885 100.795C340.858 101.403 339.587 102.471 338.249 103.661C336.924 104.864 335.477 105.594 334.369 105.905C333.247 106.202 332.503 106.121 332.503 106.189C332.49 106.229 333.233 106.418 334.423 106.189V106.162Z" fill="#FFBA02"/>
<path d="M96.6172 0V459.754" stroke="#1D1D1B" stroke-width="0.25" stroke-miterlimit="10"/>
<path d="M275.13 0V459.754" stroke="#1D1D1B" stroke-width="0.25" stroke-miterlimit="10"/>
<path d="M453.63 0V459.754" stroke="#1D1D1B" stroke-width="0.25" stroke-miterlimit="10"/>
<path d="M632.143 0V459.754" stroke="#1D1D1B" stroke-width="0.25" stroke-miterlimit="10"/>
<path d="M0 198.98H728.895" stroke="#1D1D1B" stroke-width="0.25" stroke-miterlimit="10"/>
<path d="M0 285.553H728.895" stroke="#1D1D1B" stroke-width="0.25" stroke-miterlimit="10"/>
<path d="M0 242.267H728.895" stroke="#1D1D1B" stroke-width="0.25" stroke-miterlimit="10"/>
<path d="M1.09473 220.623H729.99" stroke="#1D1D1B" stroke-width="0.25" stroke-miterlimit="10"/>
<path d="M0 177.986H728.895" stroke="#1D1D1B" stroke-width="0.25" stroke-miterlimit="10"/>
<path d="M1.09473 263.91H729.99" stroke="#1D1D1B" stroke-width="0.25" stroke-miterlimit="10"/>
<path d="M0 309.265H728.895" stroke="#1D1D1B" stroke-width="0.25" stroke-miterlimit="10"/>
<path d="M0 350.131H728.895" stroke="#1D1D1B" stroke-width="0.25" stroke-miterlimit="10"/>
</g>
<defs>
<clipPath id="clip0_219_187">
<rect width="729.99" height="459.754" fill="white"/>
</clipPath>
</defs>
</svg>
